<svg id="Group_2" data-name="Group 2" xmlns="http://www.w3.org/2000/svg" width="634.711" height="552.534" viewBox="0 0 634.711 552.534">
  <path id="Path_1" data-name="Path 1" d="M634.711,753.236l-454.356,6.85L0,728.121H281.559Z" transform="translate(0 -207.552)" fill="#e6e6e6"/>
  <circle id="Ellipse_4" data-name="Ellipse 4" cx="72.682" cy="72.682" r="72.682" transform="translate(450.533 0)" fill="#ff6584"/>
  <path id="Path_2" data-name="Path 2" d="M335.954,789.087s1.063-22.277,22.858-19.688" transform="translate(-207.378 -264.719)" fill="#3f3d56"/>
  <circle id="Ellipse_5" data-name="Ellipse 5" cx="10.908" cy="10.908" r="10.908" transform="translate(111.51 481.353)" fill="#fb6464"/>
  <rect id="Rectangle_2" data-name="Rectangle 2" width="3.079" height="21.554" transform="translate(120.643 510.629)" fill="#3f3d56"/>
  <path id="Path_3" data-name="Path 3" d="M838.4,794.409s1.063-22.277,22.858-19.688" transform="translate(-350.601 -266.236)" fill="#3f3d56"/>
  <circle id="Ellipse_6" data-name="Ellipse 6" cx="10.908" cy="10.908" r="10.908" transform="translate(470.733 485.158)" fill="#fb6464"/>
  <rect id="Rectangle_3" data-name="Rectangle 3" width="3.079" height="21.554" transform="translate(479.867 514.435)" fill="#3f3d56"/>
  <path id="Path_4" data-name="Path 4" d="M911.851,799.732s1.063-22.277,22.858-19.688" transform="translate(-371.538 -267.753)" fill="#3f3d56"/>
  <circle id="Ellipse_7" data-name="Ellipse 7" cx="10.908" cy="10.908" r="10.908" transform="translate(523.247 488.963)" fill="#fb6464"/>
  <rect id="Rectangle_4" data-name="Rectangle 4" width="3.079" height="21.554" transform="translate(532.381 518.24)" fill="#3f3d56"/>
  <path id="Path_5" data-name="Path 5" d="M456.243,774.183s1.063-22.277,22.858-19.687" transform="translate(-241.666 -260.47)" fill="#3f3d56"/>
  <circle id="Ellipse_8" data-name="Ellipse 8" cx="10.908" cy="10.908" r="10.908" transform="translate(197.511 470.698)" fill="#fb6464"/>
  <rect id="Rectangle_5" data-name="Rectangle 5" width="3.079" height="21.554" transform="translate(206.644 499.974)" fill="#3f3d56"/>
  <path id="Path_6" data-name="Path 6" d="M229.5,779.506s1.063-22.277,22.858-19.688" transform="translate(-177.034 -261.987)" fill="#3f3d56"/>
  <circle id="Ellipse_9" data-name="Ellipse 9" cx="10.908" cy="10.908" r="10.908" transform="translate(35.404 474.503)" fill="#fb6464"/>
  <rect id="Rectangle_6" data-name="Rectangle 6" width="3.079" height="21.554" transform="translate(44.537 503.78)" fill="#3f3d56"/>
  <circle id="Ellipse_10" data-name="Ellipse 10" cx="118.844" cy="118.844" r="118.844" transform="translate(197.361 241.119)" fill="#3f3d56"/>
  <path id="Path_7" data-name="Path 7" d="M489.426,556.393a31.449,31.449,0,0,1,48.273,0,34.954,34.954,0,1,0-48.273,0Z" transform="translate(-248.041 -186.89)" fill="#fff"/>
  <path id="Path_8" data-name="Path 8" d="M621.431,556.393a31.449,31.449,0,0,1,48.273,0,34.954,34.954,0,1,0-48.272,0Z" transform="translate(-285.669 -186.89)" fill="#fff"/>
  <circle id="Ellipse_11" data-name="Ellipse 11" cx="12.024" cy="12.024" r="12.024" transform="translate(241.573 320.294)" fill="#3f3d56"/>
  <circle id="Ellipse_12" data-name="Ellipse 12" cx="12.024" cy="12.024" r="12.024" transform="translate(335.947 320.294)" fill="#3f3d56"/>
  <circle id="Ellipse_13" data-name="Ellipse 13" cx="13.982" cy="13.982" r="13.982" transform="translate(216.586 375.693)" fill="#ff6584"/>
  <circle id="Ellipse_14" data-name="Ellipse 14" cx="13.982" cy="13.982" r="13.982" transform="translate(377.375 375.693)" fill="#ff6584"/>
  <path id="Path_9" data-name="Path 9" d="M430.762,505.926l-10.486,45.441,17.477-17.477Z" transform="translate(-119.8 -144.215)" fill="#ff6584"/>
  <path id="Path_10" data-name="Path 10" d="M494.987,722.486l-11.905-9.992.277,9.992h-3.7l-.3-10.566-16.074,10.566h-6.729l22.683-14.91-.879-31.307-.656-23.644,3.688-.1.666,23.746.878,31.279,17.793,14.937Z" transform="translate(-130.144 -186.003)" fill="#3f3d56"/>
  <path id="Path_11" data-name="Path 11" d="M416.76,722.486l-11.905-9.992.277,9.992h-3.688l-.3-10.566-16.074,10.566h-6.729l22.674-14.91-.878-31.307-.656-23.644,3.7-.1.666,23.746.869,31.279,17.794,14.937Z" transform="translate(-107.848 -186.003)" fill="#3f3d56"/>
  <path id="Path_12" data-name="Path 12" d="M585.505,383.041c-3.261,0-6.138,2.533-8.061,6.424-1.7-5.851-5.257-9.919-9.416-9.919a6.323,6.323,0,0,0-.84.141c-1.6-6.246-5.315-10.627-9.647-10.627-5.791,0-10.486,7.825-10.486,17.477s4.695,17.477,10.486,17.477a6.323,6.323,0,0,0,.84-.141c1.6,6.247,5.315,10.627,9.647,10.627,3.261,0,6.138-2.533,8.061-6.424,1.7,5.851,5.257,9.919,9.416,9.919,5.791,0,10.486-7.825,10.486-17.477S591.3,383.041,585.505,383.041Z" transform="translate(-267.552 -150.661)" fill="#3f3d56"/>
  <path id="Path_13" data-name="Path 13" d="M0,0H0A34.954,34.954,0,0,1,34.954,34.954V52.431A34.954,34.954,0,0,1,0,87.386H0Z" transform="translate(204.654 405.001) rotate(180)" fill="#fb6464"/>
  <path id="Path_14" data-name="Path 14" d="M598.3,444.248h0A34.954,34.954,0,0,1,633.258,479.2V496.68A34.954,34.954,0,0,1,598.3,531.634h0V444.248Z" transform="translate(-170.547 -126.634)" fill="#fb6464"/>
  <path id="Path_15" data-name="Path 15" d="M673.9,507.5h-5.547a127.557,127.557,0,1,0-255.114,0H407.7c0-73.393,59.71-133.1,133.1-133.1S673.9,434.1,673.9,507.5Z" transform="translate(-227.827 -152.181)" fill="#fb6464"/>
  <path id="Path_16" data-name="Path 16" d="M131.69,368Z" transform="translate(-37.538 -104.898)" fill="#3f3d56"/>
  <path id="Path_17" data-name="Path 17" d="M318.437,408.108v0l-2.605-1.085-10.993-4.647-3.941-1.666-.3.764h0L295.3,414.836l14.9,6.305.078.071-1,2.367a4.191,4.191,0,0,0-.35.683,3.285,3.285,0,0,0,1.881,4.039c1.256.5,2.844-.539,3.547-2.315.694-1.751.016-3.976-1.208-4.514v0l-2.605-1.085-8.913-3.465,5.093-12.859-.755-.3-5.095,12.863-1.1-.428,5.114-12.914.135.057,10.477,4.434.078.071-1,2.367a4.185,4.185,0,0,0-.35.683,3.285,3.285,0,0,0,1.88,4.039c1.256.5,2.844-.539,3.547-2.315C320.339,410.87,319.661,408.645,318.437,408.108Z" transform="translate(-195.79 -159.682)" fill="#3f3d56"/>
  <path id="Path_18" data-name="Path 18" d="M389.157,449.45c-5.408-3.092-4.326-9.877-4.326-9.877-.136-4.408-3.778-3.784-3.778-3.784l-1.325.3a4.024,4.024,0,0,0-1.971-.364l-2.016.339c4.591,1.079,4.214,4.919,4.214,4.919l.643,4.491-12.03-4.853,1.381-3.257a5.811,5.811,0,0,0,.486-.949c.977-2.466-.868-4.919-2.612-5.61s-3.949.749-4.926,3.215c-.963,2.432-.022,5.523,1.678,6.269v0l3.619,1.507.027-.085Zm-6.109-7.89.386,4.3a9.914,9.914,0,0,1-1.806-6.582,4.163,4.163,0,0,0-.806-2.306,4.884,4.884,0,0,1,2.226,4.59Z" transform="translate(-214.948 -168.213)" fill="#3f3d56"/>
  <path id="Path_19" data-name="Path 19" d="M261.554,362.1v0l-3.619-1.507-15.124-5.879,3.817-3.4a4.822,4.822,0,0,1,6.59-1.079l-1.185-1.761s-2.227-2.948-5.344.171c0,0-3.857,5.686-9.915,4.237l20.691,8.757.109.1-1.394,3.288a5.807,5.807,0,0,0-.486.949c-.977,2.466.868,4.919,2.612,5.61s3.949-.749,4.926-3.215C264.195,365.942,263.253,362.852,261.554,362.1Z" transform="translate(-179.106 -144.435)" fill="#3f3d56"/>
  <path id="Path_20" data-name="Path 20" d="M340.587,329.771l-1.394,3.288a5.816,5.816,0,0,0-.486.949c-.977,2.466.868,4.919,2.612,5.61s3.949-.749,4.926-3.215c.963-2.432.022-5.523-1.677-6.27v0l-3.619-1.507-12.379-4.812,7.073-17.859-1.048-.415L327.519,323.4l-1.531-.595,7.1-17.936.187.079,14.551,6.159.109.1-1.394,3.287a5.821,5.821,0,0,0-.486.949c-.977,2.466.868,4.919,2.612,5.61s3.949-.749,4.926-3.215c.963-2.432.022-5.523-1.677-6.269v0L348.3,310.06l-14.789-6.252h0l-.48-.2-5.473-2.314-7.772,19.623,20.691,8.757ZM327.14,302.352Z" transform="translate(-202.769 -131.343)" fill="#3f3d56"/>
  <path id="Path_21" data-name="Path 21" d="M240.16,190.339l0-.005-6.229-2.594L207.9,177.618l6.571-5.846a8.3,8.3,0,0,1,11.344-1.858l-2.039-3.031s-3.834-5.075-9.2.294c0,0-6.64,9.788-17.069,7.293l35.618,15.075.187.169-2.4,5.659a10.013,10.013,0,0,0-.837,1.633c-1.681,4.245,1.494,8.468,4.5,9.657s6.8-1.289,8.48-5.534C244.706,196.944,243.086,191.624,240.16,190.339Z" transform="translate(-167.912 -92.411)" fill="#3f3d56"/>
  <path id="Path_22" data-name="Path 22" d="M258.507,301.534c-12.93-7.393-10.342-23.615-10.342-23.615-.325-10.539-9.033-9.047-9.033-9.047l-3.169.723a9.622,9.622,0,0,0-4.712-.872l-4.821.811c10.977,2.579,10.075,11.761,10.075,11.761l1.538,10.736-28.762-11.6,3.3-7.786a13.906,13.906,0,0,0,1.163-2.269c2.335-5.9-2.075-11.761-6.245-13.413s-9.443,1.79-11.778,7.686c-2.3,5.816-.052,13.2,4.011,14.99l0,.007,8.652,3.6.064-.2ZM243.9,282.67l.926,10.312a23.626,23.626,0,0,1-4.321-15.773,9.956,9.956,0,0,0-1.926-5.513c6.239,3.733,5.321,10.974,5.321,10.974Z" transform="translate(-167.141 -118.589)" fill="#3f3d56"/>
</svg>
