<svg xmlns="http://www.w3.org/2000/svg" width="1178.329" height="951.085" viewBox="0 0 1178.329 951.085">
  <g id="bg-2" transform="translate(-0.002 -0.661)" opacity="0.3">
    <path id="Path_212" data-name="Path 212" d="M779.125,625.9c-24.871,14.916-69.182,33.605-114.462,14.4l-29.271-12.416,58.656-65.753c-96.989-106.94-96.822-270.076.386-376.816s259.617-122.125,375.138-35.534,146.315,246.794,71.131,370.042S908.979,688.99,779.125,625.9ZM666.739,373.486a232.8,232.8,0,0,0,74.12,171.278l16.179,15.2-36.91,41.375c19.226-3.9,35.971-14.3,44.462-20.342l11.651-8.29,12.53,6.885a235.2,235.2,0,0,0,112.977,28.9c129.584,0,235.009-105.424,235.009-235.009S1031.333,138.476,901.749,138.476,666.74,243.9,666.74,373.486Z" transform="translate(-3.377 -93.127)" fill="#3f3d56"/>
    <path id="Path_213" data-name="Path 213" d="M638.315,368c0-142.375,115.418-257.793,257.793-257.793S1153.9,225.629,1153.9,368,1038.485,625.8,896.108,625.8a256.62,256.62,0,0,1-123.949-31.713c-17.82,12.679-61.293,37.969-104.239,19.752l51.7-57.95A257.062,257.062,0,0,1,638.315,368Z" transform="translate(2.263 -87.646)" fill="#fb6464"/>
    <path id="Path_214" data-name="Path 214" d="M1050.764,368.422c0-134.7-103.308-245.244-235.009-256.78,7.509-.658,15.1-1.014,22.785-1.014,142.375,0,257.793,115.418,257.793,257.793S980.915,626.217,838.54,626.217c-7.668,0-15.251-.361-22.749-1.017C947.473,613.646,1050.764,503.106,1050.764,368.422Z" transform="translate(61.485 -87.506)" opacity="0.1"/>
    <path id="Path_215" data-name="Path 215" d="M456.525,901.832a280.877,280.877,0,1,1,207.7-91.939l58.656,65.753L693.61,888.062c-45.281,19.207-89.592.518-114.462-14.4a281.231,281.231,0,0,1-122.623,28.168Zm0-515.587c-129.584,0-235.009,105.425-235.009,235.009S326.941,856.262,456.525,856.262a235.223,235.223,0,0,0,113-28.909l12.51-6.874,11.65,8.29c8.491,6.041,25.236,16.441,44.462,20.342l-36.91-41.375,16.179-15.2a232.8,232.8,0,0,0,74.119-171.279C691.534,491.669,586.109,386.245,456.525,386.245Z" transform="translate(-152.211 -10.933)" fill="#3f3d56"/>
    <path id="Path_216" data-name="Path 216" d="M708.5,615.4C708.5,473.02,593.084,357.6,450.708,357.6S192.915,473.02,192.915,615.4,308.333,873.189,450.708,873.189a256.621,256.621,0,0,0,123.949-31.712c17.82,12.679,61.293,37.969,104.239,19.752L627.2,803.28A257.062,257.062,0,0,0,708.5,615.4Z" transform="translate(-146.395 -5.076)" fill="#fb6464"/>
    <path id="Path_217" data-name="Path 217" d="M238.484,614.419c0-134.7,103.308-245.244,235.009-256.78-7.509-.658-15.105-1.014-22.785-1.014-142.375,0-257.793,115.418-257.793,257.793S308.333,872.213,450.708,872.213c7.668,0,15.251-.361,22.749-1.017C341.773,859.643,238.484,749.1,238.484,614.419Z" transform="translate(-146.395 -5.402)" opacity="0.1"/>
    <path id="Path_218" data-name="Path 218" d="M909.543,249.579c-16.867-28.5-50.237-29.828-50.237-29.828S826.788,215.593,805.929,259c-19.443,40.458-46.276,79.521-4.32,88.992l7.579-23.588,4.693,25.344a164.16,164.16,0,0,0,17.951.307c44.932-1.451,87.723.424,86.345-15.7C916.346,312.919,925.772,277,909.543,249.579Z" transform="translate(49.348 -51.122)" fill="#2f2e41"/>
    <path id="Path_219" data-name="Path 219" d="M795.959,432.966a66.539,66.539,0,0,1-2.151,9.262c-1.056,2.968-2.685,5.713-3.65,8.711-3.076,9.558,1.188,20.215,8,27.593a45.026,45.026,0,0,0,21.953,13.035,89.565,89.565,0,0,0,18.865,1.983c17.534.595,35.519,1.126,52.134-4.509a90.581,90.581,0,0,0,15.146-6.881,11.34,11.34,0,0,0,3.93-3.095,10.816,10.816,0,0,0,1.418-6.348c-.037-7.433-1.544-14.828-1.186-22.253.2-4.113.968-8.222.589-12.322a22.731,22.731,0,0,0-17.372-19.58c-4.713-1.012-9.6-.461-14.4,0a367.121,367.121,0,0,1-37.477,1.676c-12.785-.082-25.491-2.033-38.212-2.237-3.762-.06-3.686,1.1-4.884,4.74A88.665,88.665,0,0,0,795.959,432.966Z" transform="translate(52.602 15.079)" fill="#2f2e41"/>
    <path id="Path_220" data-name="Path 220" d="M825.28,295.439c-.614,3.217-1.279,6.552-3.212,9.2-2.224,3.042-5.851,4.78-8.244,7.69-3.6,4.382-3.808,10.547-3.823,16.219-.014,5.225.092,10.8,3.006,15.135a26.45,26.45,0,0,0,7.581,6.683c10.927,7.364,22.735,14.86,35.91,15.1,5.459.1,11.312-1.309,14.9-5.421a22.376,22.376,0,0,0,3.608-6.438,85.487,85.487,0,0,0,6.051-26.024,30.558,30.558,0,0,0-1.152-12.5c-1.6-4.462-4.837-8.134-6.975-12.365a27.525,27.525,0,0,1-2.65-16.288,1.759,1.759,0,0,0-.093-1.18,1.72,1.72,0,0,0-1.417-.574l-26.123-1.881a56.846,56.846,0,0,1-7.253-.83c-1.408-.286-5.128-2.286-6.471-1.755C826.441,281.193,825.789,292.771,825.28,295.439Z" transform="translate(59.564 -30.937)" fill="#a0616a"/>
    <path id="Path_221" data-name="Path 221" d="M825.28,296.051c-.614,3.217-1.279,6.552-3.212,9.2-2.224,3.042-5.851,4.78-8.244,7.69-3.6,4.382-3.808,10.547-3.823,16.219-.014,5.225.092,10.8,3.006,15.135a26.453,26.453,0,0,0,7.58,6.683c10.927,7.364,22.735,14.86,35.91,15.1,5.459.1,11.312-1.309,14.9-5.421a22.377,22.377,0,0,0,3.608-6.438,85.489,85.489,0,0,0,6.051-26.024,30.56,30.56,0,0,0-1.152-12.5c-1.6-4.462-4.837-8.134-6.976-12.365a27.527,27.527,0,0,1-2.649-16.289,1.759,1.759,0,0,0-.093-1.18,1.719,1.719,0,0,0-1.417-.574L842.65,283.4a56.849,56.849,0,0,1-7.253-.83c-1.408-.286-5.128-2.286-6.471-1.755C826.441,281.8,825.789,293.384,825.28,296.051Z" transform="translate(59.564 -30.733)" opacity="0.1"/>
    <circle id="Ellipse_24" data-name="Ellipse 24" cx="38.326" cy="38.326" r="38.326" transform="translate(871.5 191.354)" fill="#a0616a"/>
    <path id="Path_222" data-name="Path 222" d="M828.951,336.258a23.508,23.508,0,0,0,6.732,5.379,21.152,21.152,0,0,0,8.41,1.6c6.909.194,14.4-1.072,19.2-6.038,6.2-6.4,5.991-16.729,10.847-24.2a5.391,5.391,0,0,1,1.565-1.711,5.071,5.071,0,0,1,2.661-.612c6.133-.057,11.475,3.92,16.3,7.711a21.464,21.464,0,0,1,5.736,5.843,19.8,19.8,0,0,1,1.934,5.924c2.393,11.68,3.168,23.622,3.937,35.519.425,6.571.85,13.149.818,19.734-.1,21.7-5.147,43.027-10.161,64.135-.646,2.72-1.53,5.76-4,7.063a9.871,9.871,0,0,1-3.494.853c-14.363,1.687-28.755,3.376-43.215,3.6q-8.464.13-16.921-.41a9.115,9.115,0,0,1-2.85-.5,8.038,8.038,0,0,1-3.107-2.639c-7.822-9.856-8.283-23.482-8.233-36.064q.183-46.144,3.3-92.214c.171-2.535.209-5.614-1.618-7.608a95.247,95.247,0,0,0,12.166,14.632Z" transform="translate(61.268 -20.739)" fill="#fff"/>
    <path id="Path_223" data-name="Path 223" d="M834.2,297.534c-1.294,2.343-10.838,8.162-12.68,10.1-10.294,10.85-29.082,10.443-38.5,22.065-3.312,4.089-5.033,9.226-6.3,14.334-1.79,7.224-2.746,15.1.253,21.914,2.885,6.554,8.96,11.086,13.084,16.94,4.528,6.428,6.564,14.233,8.515,21.851,1.441,5.624,2.893,11.388,2.332,17.166-.638,6.57-3.817,12.586-5.694,18.914s-2.2,13.866,2.139,18.839c3.189,3.654,8.19,5.1,12.971,5.917a149.033,149.033,0,0,0,18.487,1.609c5.465.241,11.489.288,15.69-3.215,3.315-2.764,4.756-7.25,4.942-11.562s-.711-8.586-1.273-12.866c-.583-4.436-.807-8.911-.994-13.382q-1.261-30.088-.344-60.215a51.239,51.239,0,0,0-.609-12.5c-1.172-5.373-4.076-10.174-6.5-15.111a57.182,57.182,0,0,1-6.34-30.207C834.12,297.386,838.809,289.2,834.2,297.534Z" transform="translate(47.899 -26.268)" fill="#fff"/>
    <path id="Path_224" data-name="Path 224" d="M863.066,299.286c1.972,2.026,8.671,2.694,11.179,4a39.16,39.16,0,0,0,7.349,2.544,95.406,95.406,0,0,1,25.817,11.849,15.668,15.668,0,0,1,4.317,3.729,17.092,17.092,0,0,1,2.388,6.744c1.228,6.083,2.462,12.24,2.186,18.44-.293,6.581-2.275,12.955-4.242,19.242l-7.348,23.492c-5.485,17.535-11,35.243-12.548,53.551a125.966,125.966,0,0,0,1.131,30.415,3.606,3.606,0,0,1-.37,2.946,2.9,2.9,0,0,1-1.8.828c-3.547.555-6.979-1.254-10.192-2.854a112.861,112.861,0,0,0-31.113-10.18,72.331,72.331,0,0,0,9.663-19.921,120.549,120.549,0,0,0,2.92-13.7l3.418-19.77a194.261,194.261,0,0,0,2.932-21.863,27.369,27.369,0,0,0-.476-8.236,39.954,39.954,0,0,0-3.122-7.427c-5.634-11.718-8.277-25.091-6.06-37.9.97-5.607,2.855-11.221,2.069-16.857-.756-5.418.03-9.629-1.36-14.992C854.095,281.346,859.357,295.473,863.066,299.286Z" transform="translate(72.855 -27.204)" fill="#fff"/>
    <path id="Path_225" data-name="Path 225" d="M783.239,338.6c-2.568,5.33-6.862,9.87-8.323,15.6a34.085,34.085,0,0,0-.726,8.155,38.729,38.729,0,0,0,1.21,12.262c.816,2.528,2.143,4.859,3.1,7.338a26.606,26.606,0,0,1,1.743,10.871c-.258,5.134-2,10.117-2.138,15.255-.214,8.08,3.523,15.677,7.17,22.891a16.828,16.828,0,0,1,24.46-8.008,5.016,5.016,0,0,0,1.1-3.657q.4-14.062.78-28.124c.395-14.5.771-29.192-2.565-43.308-1.506-6.373-3.849-12.722-8.145-17.665-2.262-2.6-9.94-9.459-13.653-6.543-1.67,1.311-1.279,4.881-1.544,6.688A28.38,28.38,0,0,1,783.239,338.6Z" transform="translate(47.588 -16.638)" fill="#fff"/>
    <path id="Path_226" data-name="Path 226" d="M911.4,326.585a39.22,39.22,0,0,1,1.312,11.8q.074,12.156-.322,24.309A45.318,45.318,0,0,1,910.805,375c-.829,2.608-2.109,5.054-2.966,7.653-2.567,7.79-1.165,16.239-.944,24.438a27.771,27.771,0,0,1-.673,7.905c-1.355,5.083-5,9.19-7.536,13.8-2.413,4.374-3.869,9.277-6.752,13.358s-7.872,7.314-12.708,6.061c-3.664-.949-6.268-4.193-8.069-7.522a36.894,36.894,0,0,1-3.815-23.932c1.808-9.951,7.653-18.779,9.762-28.671,2.895-13.584-1.5-27.6-1.374-41.49a20.055,20.055,0,0,1,.874-6.431c1.106-3.172,3.481-5.706,5.675-8.25a104.162,104.162,0,0,0,7.627-10.009c1.57-2.342,3.7-8.367,6.488-8.868C902.612,311.916,909.853,321.782,911.4,326.585Z" transform="translate(78.512 -19.98)" fill="#fff"/>
    <path id="Path_227" data-name="Path 227" d="M765.613,424.975a37.827,37.827,0,0,0-10.523-1.119,26.264,26.264,0,0,0-24.383,30.961,44.121,44.121,0,0,0,4.17,11.394c2.791,5.663,6.138,11.314,11.3,14.943a44.026,44.026,0,0,0,9.976,4.749l27.21,10.251c4,1.508,8.007,3.016,12.049,4.414a235.675,235.675,0,0,0,62.933,12.511,68.146,68.146,0,0,0,19.54-.99,6.361,6.361,0,0,0,4-2.162,6.852,6.852,0,0,0,.894-2.953l1.674-11.722a9.816,9.816,0,0,0-.142-4.941c-.767-1.97-2.69-3.209-4.523-4.262-17.889-10.274-38.776-15.943-53.833-30.044-3.545-3.32-6.511-8.582-10.818-10.837-4.884-2.557-10.635-4.017-15.684-6.373C788.423,433.644,777.573,427.725,765.613,424.975Z" transform="translate(32.955 17.029)" fill="#2f2e41"/>
    <path id="Path_228" data-name="Path 228" d="M780.186,437.212c9.618,3.014,50.223,23.892,57.183,31.182-.933.336-32.586-17.4-33.536-17.688a191.244,191.244,0,0,1-25.514-8.992c-1.65-.763-10.715-4.348-10.3-6.429C768.478,432.938,778.479,436.676,780.186,437.212Z" transform="translate(45.547 20.595)" opacity="0.1"/>
    <path id="Path_229" data-name="Path 229" d="M876.967,501.531a2.26,2.26,0,0,0,1.525-.449,2.354,2.354,0,0,0,.477-1.754l-.045-15.969c-4.592-2.188-9.729-2.889-14.77-3.563l-23.524-3.145c.541.072-3.678,10.132-3.031,11.475,1.14,2.367,9.853,4.465,12.312,5.583C858.457,497.594,867.34,501.866,876.967,501.531Z" transform="translate(68.753 34.658)" fill="#a0616a"/>
    <path id="Path_230" data-name="Path 230" d="M815.388,484.509c-4.442.707-9.4,1.333-12.276,4.79-3.648,4.385-2.095,10.921-.355,16.353a5.3,5.3,0,0,0,6.185,4.424c4.051.256,8.361.457,11.9-1.529a52.163,52.163,0,0,0,4.623-3.436,29.639,29.639,0,0,1,8.5-3.886,85.946,85.946,0,0,1,17.061-3.516,26.537,26.537,0,0,0,6.721-1.185,7.447,7.447,0,0,0,4.734-4.6c.82-2.9-.867-5.861-2.485-8.406a33.537,33.537,0,0,0-7.154-8.842c-4.383-3.4-6.552-.791-10.967,1.388a93.048,93.048,0,0,1-26.488,8.442Z" transform="translate(56.524 33.452)" fill="#a0616a"/>
    <path id="Path_231" data-name="Path 231" d="M816.488,487.236l-28.2-8.336a37.328,37.328,0,0,0-10.5-2.034,12.6,12.6,0,0,0-9.638,3.9c-2.187,2.567-2.813,6.075-3.358,9.4l-1.166,7.118a35.75,35.75,0,0,0-.653,10.931,12.086,12.086,0,0,0,5.6,9.006c3.9,2.129,8.686,1.089,13.042.2a141.977,141.977,0,0,1,26.726-2.866c3.376-.04,6.916,0,9.9-1.579a12.359,12.359,0,0,0,6.032-9.849C824.832,497.045,822.8,489.1,816.488,487.236Z" transform="translate(43.816 34.726)" fill="#2f2e41"/>
    <path id="Path_232" data-name="Path 232" d="M878.4,480.617c3.656-.641,6.883-2.719,10.386-3.945,4.931-1.726,10.275-1.726,15.5-1.707a9.95,9.95,0,0,1,5.557,1.113c2.3,1.532,2.891,4.6,3.282,7.335l2.361,16.512a25.907,25.907,0,0,1,.193,9.355c-.693,3.06-2.778,6.01-5.815,6.8-3.688.959-7.3-1.4-10.785-2.945-8.7-3.868-18.82-2.879-27.895-5.77a6.252,6.252,0,0,1-4.175-2.985,6.791,6.791,0,0,1-.325-2.853c.156-5.308-.964-12.555.634-17.628C868.755,479.335,874.32,480.617,878.4,480.617Z" transform="translate(78.404 34.081)" fill="#2f2e41"/>
    <path id="Path_233" data-name="Path 233" d="M949.573,420.074a48.975,48.975,0,0,1,17.252-1.179c4.612.508,9.364,1.792,12.732,4.984,4.1,3.886,5.416,9.895,5.525,15.541a48.554,48.554,0,0,1-10.553,31.009,28.139,28.139,0,0,1-6.033,5.808,39.719,39.719,0,0,1-7.85,3.783L899.71,504.055c-16.031,6.323-32.118,12.664-48.84,16.833a3.806,3.806,0,0,1-5.122-1.857A126.25,126.25,0,0,1,832.393,494.6a1.646,1.646,0,0,1,.728-2.6l43.1-24.764a43.584,43.584,0,0,0,8.772-6.044,21.775,21.775,0,0,0,4.5-6.27c.893-1.866.977-6.27,2.118-7.649,1.117-1.35,4.939-1.458,6.7-1.989a60.856,60.856,0,0,0,7.3-2.759c9.641-4.313,18.227-10.58,27.469-15.63A70.478,70.478,0,0,1,949.573,420.074Z" transform="translate(66.914 15.283)" fill="#2f2e41"/>
    <path id="Path_234" data-name="Path 234" d="M919.15,434.753c-7.4,5.562-16.993,10.674-24.332,16.382-2.5,1.948-44.259,25.423-44.849,28.54,6.847,1.154,50.462-29.358,56.7-32.4s11.772-7.338,17.253-11.6c1.4-1.086,7.317-4.351,3.307-5.565C924.972,429.425,920.817,433.642,919.15,434.753Z" transform="translate(72.904 19.098)" opacity="0.1"/>
    <path id="Path_235" data-name="Path 235" d="M882.571,297.693h-65a9.957,9.957,0,0,0-9.957,9.957V311.3h-.706v8.154h.706v5.708h-.706v4.893h.706v60.167a9.957,9.957,0,0,0,9.957,9.957h65a9.957,9.957,0,0,0,9.957-9.957V307.65a9.957,9.957,0,0,0-9.956-9.957Z" transform="translate(58.532 -25.072)" fill="#d0cde1"/>
    <path id="Path_236" data-name="Path 236" d="M735.347,151.223l-32.968-17.27-45.528,7.065-9.419,41.6,23.448-.9,6.55-15.284v15.033l10.82-.416,6.279-24.334,3.925,25.9,38.463-.786Z" transform="translate(216.087 44.488)" fill="#2f2e41"/>
    <path id="Path_237" data-name="Path 237" d="M789.06,442.214a17.133,17.133,0,0,0,6.154,6.122,12.035,12.035,0,0,0,10.579-.284,18.622,18.622,0,0,0,7.634-7.654c3.583-6.327,4.325-13.9,3.878-21.155s-2-14.4-2.682-21.642c-.5-5.262-.539-10.555-.579-15.841a5.269,5.269,0,0,1,.666-3.2,6.29,6.29,0,0,1,3.534-1.765c7.231-2.148,12.031-8.926,15.472-15.639,2.3-4.482,4.3-9.382,3.853-14.4s-4.05-10.072-9.061-10.584c-4.131-.422-7.946,2.2-10.926,5.094a46.85,46.85,0,0,0-13.718,27.416c-.654,5.1-.467,10.342-1.854,15.3-2.963,10.575-12.233,17.059-16.853,26.575C780.065,421.033,782.875,432.937,789.06,442.214Z" transform="translate(50.392 -12.245)" fill="#a0616a"/>
    <path id="Path_238" data-name="Path 238" d="M900.5,409.7a19.986,19.986,0,0,1-11.208,10.769,15.479,15.479,0,0,1-9.743.6,10.8,10.8,0,0,1-7.137-6.384,17.2,17.2,0,0,1-.8-4.8c-.464-7.132-.285-14.48,2.306-21.141,1-2.569,2.346-5.005,3.135-7.647a38.349,38.349,0,0,0,1.18-9.332l.852-19.458a12.663,12.663,0,0,0-.289-4.219c-.849-2.816-3.481-4.645-5.9-6.324-5.831-4.055-11.593-8.787-14.419-15.3a10.733,10.733,0,0,1-1-6.339c.8-3.864,4.7-6.365,8.55-7.208a19.125,19.125,0,0,1,22.929,15.412c.381,2.2.376,4.439.6,6.656.473,4.7,1.967,9.238,2.9,13.873,2.3,11.416,1.109,23.216,3.384,34.63C897.746,393.035,904.92,399.263,900.5,409.7Z" transform="translate(75.372 -20.137)" fill="#a0616a"/>
    <circle id="Ellipse_25" data-name="Ellipse 25" cx="8.154" cy="8.154" r="8.154" transform="translate(901.318 300.087)" fill="#fb6464"/>
    <circle id="Ellipse_26" data-name="Ellipse 26" cx="24.054" cy="24.054" r="24.054" transform="translate(0.002 553.202)" fill="#2f2e41"/>
    <path id="Path_239" data-name="Path 239" d="M92.531,489.457,80.415,477.68l-24.329,7.557,2.337,28.17,50.024-2.323L93.079,490.2Z" transform="translate(18.719 159.21)" fill="#fbbebe"/>
    <circle id="Ellipse_27" data-name="Ellipse 27" cx="38.889" cy="38.889" r="38.889" transform="translate(45.862 570.647)" fill="#fbbebe"/>
    <path id="Path_240" data-name="Path 240" d="M407.963,617.061s47.776,82.1,59.147,94.431a206.417,206.417,0,0,0,17.252,17.194s-5.346,17.73-13.86,17.1a40.067,40.067,0,0,1-14.043-3.461s-3.8-9.85-10.428-14.17-60.777-57.592-59.512-74.618S407.963,617.061,407.963,617.061Z" transform="translate(-81.784 81.521)" fill="#2f2e41"/>
    <path id="Path_241" data-name="Path 241" d="M275.023,718.1s50.94,39.538,120.17,2.386l5.966-4.391s-10.068,22.65-11,28.791c-1.083,7.12-27.3,48.829-31.574,50.827s-5.22,3.842-5.22,3.842l18.153,19.981,6.712-4.939s26.171-37.08,33.826-43.862S456.177,694,456.177,694s13.944-26.356-20.855-28.339-50.812,7.5-50.812,7.5l-61.759,9.811Z" transform="translate(-118.99 97.651)" fill="#2f2e41"/>
    <path id="Path_242" data-name="Path 242" d="M469.5,697.841l25.766,17.827s32.871,10.3,12.623,17.152-73.607,9.333-74.818-.123,2.1-24.339,4.767-23.526S458.972,714.784,469.5,697.841Z" transform="translate(-66.327 108.482)" fill="#2f2e41"/>
    <path id="Path_243" data-name="Path 243" d="M364.951,775.817l4.769,26.188s13.56,25.934-2.721,17.887-49.826-38.612-44.872-45.02,15.886-13.357,17-11.269S348.45,779.672,364.951,775.817Z" transform="translate(-103.434 130.305)" fill="#2f2e41"/>
    <path id="Path_244" data-name="Path 244" d="M355.722,722.162s-34.628,40.429-55.651,30.608S193.038,629.2,202.859,608.177s13.114-16.549,13.114-16.549l44.41,4.107-12.778-20.487s5.966-4.391,11.651,1.773,28.51,21.556,36.461,43.3,31.3,20.655,31.3,20.655Z" transform="translate(-143.335 67.059)" fill="#fff"/>
    <path id="Path_245" data-name="Path 245" d="M292.562,552.656l-60.026,63.718-53.772-94.937,51.119-61.762Z" transform="translate(59.664 153.201)" fill="#3f3d56"/>
    <path id="Path_246" data-name="Path 246" d="M286.548,550.646l-54.215,55.993-49.128-86.284,45.054-56.724Z" transform="translate(61.146 154.521)" fill="#fff"/>
    <path id="Path_247" data-name="Path 247" d="M237.814,575.336l2.941,2.434-1.886,3.687-83.935,24.981-.794-2.876,3.819-3.949Z" transform="translate(51.445 191.804)" fill="#b3b3b3"/>
    <path id="Path_248" data-name="Path 248" d="M254.648,600.37l-86.917,27.175L114.747,527.429l85.383-21.448Z" transform="translate(38.297 168.656)" fill="#d0cde1"/>
    <path id="Path_249" data-name="Path 249" d="M226.023,584.365l-3.729,2.744-41.387-71.86,4.277-2Z" transform="translate(60.379 171.082)" fill="#3f3d56"/>
    <path id="Path_250" data-name="Path 250" d="M227.964,587.41,191.2,598.373l-41.739-73.9,36.374-8.373Z" transform="translate(49.882 172.033)" fill="#3f3d56"/>
    <path id="Path_251" data-name="Path 251" d="M289.861,622.331l7.613-2.153s42.453-4.8,43.073,8.539-48.771,7.151-48.771,7.151l-6.586-8.949Z" transform="translate(-115.597 82.281)" fill="#fbbebe"/>
    <path id="Path_252" data-name="Path 252" d="M318.983,674.286l10.6-4.349s31.984-14.34,22.809-23.683-37.472,6.883-37.472,6.883l-5.417,5.136Z" transform="translate(-107.484 90.297)" fill="#fbbebe"/>
    <path id="Path_253" data-name="Path 253" d="M344.891,663.6s17.252,17.194,13.327,21.233S289.917,742,273.96,725s-93.706-102.337-63.453-109.656,38.247,9.792,38.247,9.792l39.938,68.329Z" transform="translate(-142.834 80.34)" fill="#fff"/>
    <path id="Path_254" data-name="Path 254" d="M113.287,518.781l28.34,9.61-.463,20.46-29.972-3.234Z" transform="translate(37.111 172.928)" fill="#fff"/>
    <path id="Path_255" data-name="Path 255" d="M148.285,574.841l-30.534,17.872L82.865,539.06l33.675,44.2Z" transform="translate(27.656 179.697)" opacity="0.2"/>
    <circle id="Ellipse_28" data-name="Ellipse 28" cx="46.297" cy="46.297" r="46.297" transform="translate(21.384 551.965)" fill="#2f2e41"/>
    <path id="Path_256" data-name="Path 256" d="M246.412,548.541l-32.417-47.422,13.742-17.011L261.421,532.9Z" transform="translate(71.423 161.356)" fill="#fb6464"/>
    <path id="Path_257" data-name="Path 257" d="M249.965,565.4l-49.352-71.747,2.434-2.941,49.121,71.916Z" transform="translate(66.956 163.561)" fill="#e6e6e6"/>
    <path id="Path_258" data-name="Path 258" d="M245.2,570.635l-49.352-71.747,2.434-2.941L247.4,567.865Z" transform="translate(65.365 165.307)" fill="#e6e6e6"/>
    <path id="Path_259" data-name="Path 259" d="M241.135,574.486l-49.352-71.747,2.434-2.941,49.121,71.918Z" transform="translate(64.009 166.593)" fill="#e6e6e6"/>
    <path id="Path_260" data-name="Path 260" d="M66.117,425.544H80.439a27.342,27.342,0,0,1,27.342,27.342H66.117Z" transform="translate(22.067 141.809)" fill="#2f2e41"/>
    <path id="Path_261" data-name="Path 261" d="M375.7,505.674l-2.6-.193c-.1,1.35-.173,2.708-.258,4.063l-11.654-.39,12.225,22.908,13.729-22.039-11.7-.392C375.53,508.311,375.6,506.99,375.7,505.674Z" transform="translate(-90.231 44.28)" fill="#3f3d56"/>
    <path id="Path_262" data-name="Path 262" d="M423.317,368.667l2.07,1.58c3.1-4.067,6.348-8.127,9.639-12.067l-2-1.669C429.711,360.482,426.445,364.571,423.317,368.667Z" transform="translate(-69.495 -5.441)" fill="#3f3d56"/>
    <path id="Path_263" data-name="Path 263" d="M438.272,350.544l1.922,1.756c3.455-3.783,7.041-7.54,10.659-11.169l-1.844-1.839C445.365,342.947,441.752,346.732,438.272,350.544Z" transform="translate(-64.504 -11.188)" fill="#3f3d56"/>
    <path id="Path_264" data-name="Path 264" d="M454.736,333.787l1.761,1.919c3.778-3.469,7.679-6.9,11.594-10.185l-1.675-1.994C462.472,326.84,458.543,330.292,454.736,333.787Z" transform="translate(-59.009 -16.45)" fill="#3f3d56"/>
    <path id="Path_265" data-name="Path 265" d="M409.991,388.025l2.2,1.391c2.737-4.33,5.611-8.661,8.542-12.874l-2.137-1.488C415.643,379.3,412.748,383.662,409.991,388.025Z" transform="translate(-73.943 0.748)" fill="#3f3d56"/>
    <path id="Path_266" data-name="Path 266" d="M472.579,318.527l1.586,2.065c4.069-3.124,8.254-6.193,12.441-9.123l-1.493-2.134C480.894,312.288,476.678,315.379,472.579,318.527Z" transform="translate(-53.054 -21.186)" fill="#3f3d56"/>
    <path id="Path_267" data-name="Path 267" d="M398.406,408.468l2.315,1.19c2.346-4.562,4.827-9.133,7.373-13.585l-2.261-1.293C403.268,399.265,400.769,403.871,398.406,408.468Z" transform="translate(-77.81 7.332)" fill="#3f3d56"/>
    <path id="Path_268" data-name="Path 268" d="M381.091,460.159l-2.521-.649c-1.287,5-2.478,10.091-3.541,15.144l2.548.537C378.633,470.176,379.815,465.118,381.091,460.159Z" transform="translate(-85.612 28.937)" fill="#3f3d56"/>
    <path id="Path_269" data-name="Path 269" d="M491.665,304.881l1.4,2.2c4.316-2.746,8.753-5.434,13.19-7.987l-1.3-2.257C500.482,299.407,496.013,302.115,491.665,304.881Z" transform="translate(-46.684 -25.359)" fill="#3f3d56"/>
    <path id="Path_270" data-name="Path 270" d="M376,482.749l-2.57-.422c-.836,5.083-1.57,10.263-2.182,15.4l2.586.308C374.439,492.937,375.168,487.8,376,482.749Z" transform="translate(-86.875 36.552)" fill="#3f3d56"/>
    <path id="Path_271" data-name="Path 271" d="M388.661,429.845l2.412.98c1.931-4.752,4-9.528,6.139-14.193l-2.366-1.087C392.686,420.245,390.606,425.058,388.661,429.845Z" transform="translate(-81.062 14.262)" fill="#3f3d56"/>
    <path id="Path_272" data-name="Path 272" d="M380.841,451.991l2.491.76c1.5-4.914,3.134-9.857,4.851-14.693l-2.454-.871C384,442.059,382.353,447.04,380.841,451.991Z" transform="translate(-83.672 21.486)" fill="#3f3d56"/>
    <path id="Path_273" data-name="Path 273" d="M623.754,264.659c5.1-.177,10.3-.247,15.445-.2l.023-2.6c-5.177-.048-10.416.022-15.556.2Z" transform="translate(-2.627 -37.038)" fill="#3f3d56"/>
    <path id="Path_274" data-name="Path 274" d="M511.845,292.961l1.2,2.312c4.547-2.356,9.2-4.639,13.837-6.786l-1.095-2.362C521.116,288.286,516.425,290.587,511.845,292.961Z" transform="translate(-39.948 -28.933)" fill="#3f3d56"/>
    <path id="Path_275" data-name="Path 275" d="M669.93,267.033c5.08.719,10.206,1.561,15.237,2.5l.478-2.559c-5.068-.949-10.233-1.8-15.352-2.521Z" transform="translate(12.814 -36.165)" fill="#3f3d56"/>
    <path id="Path_276" data-name="Path 276" d="M692.685,271.279c4.987,1.165,10.019,2.459,14.955,3.847l.7-2.507c-4.973-1.4-10.042-2.7-15.067-3.875Z" transform="translate(20.409 -34.734)" fill="#3f3d56"/>
    <path id="Path_277" data-name="Path 277" d="M714.969,277.529c4.862,1.6,9.759,3.341,14.552,5.163l.926-2.434c-4.83-1.836-9.762-3.586-14.661-5.2Z" transform="translate(27.847 -32.627)" fill="#3f3d56"/>
    <path id="Path_278" data-name="Path 278" d="M646.886,264.81c5.128.269,10.309.655,15.4,1.148l.252-2.591c-5.13-.5-10.351-.886-15.516-1.156Z" transform="translate(5.123 -36.915)" fill="#3f3d56"/>
    <path id="Path_279" data-name="Path 279" d="M600.423,264.219l.318,2.585c5.075-.624,10.242-1.145,15.357-1.547l-.2-2.6C610.74,263.065,605.535,263.589,600.423,264.219Z" transform="translate(-10.384 -36.764)" fill="#3f3d56"/>
    <path id="Path_280" data-name="Path 280" d="M554.878,274.664l.771,2.487c4.893-1.515,9.887-2.94,14.843-4.237l-.659-2.519C564.84,271.7,559.808,273.137,554.878,274.664Z" transform="translate(-25.585 -34.182)" fill="#3f3d56"/>
    <path id="Path_281" data-name="Path 281" d="M532.961,282.862l.989,2.409c4.734-1.943,9.57-3.8,14.374-5.528l-.88-2.45C542.6,279.031,537.73,280.9,532.961,282.862Z" transform="translate(-32.901 -31.881)" fill="#3f3d56"/>
    <path id="Path_282" data-name="Path 282" d="M577.434,268.429l.546,2.547c5-1.072,10.1-2.048,15.161-2.9l-.432-2.568C587.613,266.367,582.473,267.349,577.434,268.429Z" transform="translate(-18.057 -35.814)" fill="#3f3d56"/>
    <path id="Path_283" data-name="Path 283" d="M761.491,298.234l-14.552-21.5-5.117,10.532c-1.238-.553-2.47-1.118-3.707-1.654L737.08,288c1.208.523,2.4,1.071,3.6,1.607l-5.093,10.482Z" transform="translate(34.73 -32.069)" fill="#3f3d56"/>
  </g>
</svg>
