<svg xmlns="http://www.w3.org/2000/svg" xmlns:xlink="http://www.w3.org/1999/xlink" width="1635.4" height="1079.693" viewBox="0 0 1635.4 1079.693">
  <defs>
    <linearGradient id="linear-gradient" x1="-0.232" y1="0.5" x2="0.769" y2="0.5" gradientUnits="objectBoundingBox">
      <stop offset="0" stop-color="gray" stop-opacity="0.251"/>
      <stop offset="0.54" stop-color="gray" stop-opacity="0.122"/>
      <stop offset="1" stop-color="gray" stop-opacity="0.102"/>
    </linearGradient>
    <linearGradient id="linear-gradient-2" x1="-3.46" y1="0.929" x2="-3.46" y2="-0.082" xlink:href="#linear-gradient"/>
  </defs>
  <g id="bg" transform="translate(0 -0.005)" opacity="0.2">
    <circle id="Ellipse_15" data-name="Ellipse 15" cx="32.181" cy="32.181" r="32.181" transform="translate(1434.174 519.927)" fill="#fb6464" opacity="0.1"/>
    <circle id="Ellipse_16" data-name="Ellipse 16" cx="53.933" cy="53.933" r="53.933" transform="translate(1527.534 354.691)" fill="#fb6464" opacity="0.1"/>
    <circle id="Ellipse_17" data-name="Ellipse 17" cx="32.181" cy="32.181" r="32.181" transform="translate(645.248 9.147)" fill="#fb6464" opacity="0.1"/>
    <circle id="Ellipse_18" data-name="Ellipse 18" cx="32.181" cy="32.181" r="32.181" transform="translate(1014.389 46.134)" fill="#fb6464" opacity="0.1"/>
    <circle id="Ellipse_19" data-name="Ellipse 19" cx="53.933" cy="53.933" r="53.933" transform="translate(0 431.418)" fill="#fb6464" opacity="0.1"/>
    <path id="Path_23" data-name="Path 23" d="M944.636,265.139c-96.291-3.586-188-36.972-275.572-73.513S494.737,114.632,400.827,95.275c-60.45-12.453-129.573-14.223-178.284,20.591-46.94,33.565-62.086,91.337-70.18,144.987-6.13,40.379-9.73,82.871,7.052,120.661,11.65,26.245,32.345,48.294,46.658,73.423,49.8,87.453,14.6,195.3-39.367,280.69-25.293,40.052-54.662,78.259-74.2,120.9s-28.611,91.5-11.56,135c16.931,43.146,57.3,75.491,101.022,98.2,88.807,46.256,193.415,59.512,295.494,66.951,225.879,16.6,452.979,9.418,679.468,2.217,83.808-2.663,168-5.371,250.458-19.342,45.795-7.736,93.063-20.011,126.3-49.633,42.209-37.6,52.668-101.275,24.385-148.424-47.431-79.092-178.537-98.746-211.73-183.625-18.241-46.717.491-98.761,27.019-142.086,56.879-92.958,152.247-174.505,157.261-280.765,3.452-72.9-42.388-146.043-113.267-180.575-74.3-36.2-177.317-31.646-232.1,28.268C1128.842,244.652,1029.649,268.323,944.636,265.139Z" transform="translate(-39.884 -87.11)" fill="#fb6464" opacity="0.1"/>
    <path id="Path_24" data-name="Path 24" d="M872.34,511.58a8.793,8.793,0,0,0,1.979,5.148,29.253,29.253,0,0,0,7.915,6.725v8.064s23.805,19.892,28.7,27.405c4.716,7.171,9.537,14.476,16.247,19.818a14.655,14.655,0,0,0,6.055,3.214h.4a6.293,6.293,0,0,1-2.321,1.488A5.5,5.5,0,0,0,937.8,588.1a10.844,10.844,0,0,0,3.214-1.607l9.433-6.1a27.013,27.013,0,0,0,4.389-3.288c1.756-1.771,2.976-3.987,4.7-5.8,2.976-3.095,7.2-4.94,9.269-8.659,1.294-2.321,1.488-5.073,2.321-7.618.521-1.666,1.28-3.243,1.785-4.91a17.764,17.764,0,0,0,.61-3.065c.327.283.669.565,1.026.833.729-.476,2.128.774,1.8,1.577s-1.116,1.384-1.384,2.217c-.6,1.9,1.756,3.318,2.738,5.059s.476,3.972.58,5.951,1.012,4.359,1.294,6.576c.684,5.178-1.875,10.638,0,15.533a4.895,4.895,0,0,0-4.835,3.764,14.254,14.254,0,0,0,.193,6.621,9.105,9.105,0,0,0-4.464,8.317,2.039,2.039,0,0,1-.208,1.488,2.114,2.114,0,0,1-.848.491,8.391,8.391,0,0,0-5.178,7.8,3.87,3.87,0,0,1-.149,1.651,3.913,3.913,0,0,1-1.22,1.25,9.7,9.7,0,0,0-3.615,7.588,5.5,5.5,0,0,0,2.559,4.969h.1a26.78,26.78,0,0,0-8.927,16.946,69.571,69.571,0,0,0,1.16,17.541h.536v.432a7.813,7.813,0,0,0,.848,2.529,36.241,36.241,0,0,1,3.2,13.033,11.545,11.545,0,0,0,.446,3.288,16.579,16.579,0,0,0,1.681,2.886c1.979,3.228,2.44,7.126,3.11,10.861a85.884,85.884,0,0,0,3.794,14.239c2.276,6.308,5.341,12.765,4.3,19.341a19.329,19.329,0,0,0-.6,4.776,13.966,13.966,0,0,0,1.875,5.014,46.49,46.49,0,0,1,2.083,4.642,3.749,3.749,0,0,0,.922,2.514c.178.491.327,1,.476,1.488s.253.789.372,1.19a15.342,15.342,0,0,1,.461,2.023l-.089,1.562v1.488a3.7,3.7,0,0,1-.714,1.324,5.3,5.3,0,0,1-.387.432l-.357.4a2.682,2.682,0,0,0-.4.58h0a2.782,2.782,0,0,0-.119,1.711,2.7,2.7,0,0,0,.149.67c.372,1.607.774,3.214,1.175,4.806.119.491.253.967.372,1.488.327,1.25.655,2.514,1,3.764v.164l.223.833.848,3.065c.179.61.357,1.205.521,1.815l.655,2.217q.759,2.589,1.562,5.178c5.311,17.526,11.01,34.949,14.521,52.921a5.7,5.7,0,0,0,2.128,3.184,12.259,12.259,0,0,0,3.7,1.994c.342,2.633,1.19,5.847,1.294,7.439.327,5.192.565,10.727-1.324,15.458a1.249,1.249,0,0,0-1.131.357,46.111,46.111,0,0,0-3.407,3.615l-6.978,7.439a11.541,11.541,0,0,0-1.577,1.919,6.71,6.71,0,0,0-.669,5.49,7.439,7.439,0,0,0,3.585,4.255,5.939,5.939,0,0,1,1.131.64,6.682,6.682,0,0,0,.7.595,2.707,2.707,0,0,0,1.488.283,53.132,53.132,0,0,0,11.709-1.994,9.389,9.389,0,0,0,4.835-2.276,9.048,9.048,0,0,0,1.651-3.214l1.4-3.868a44.078,44.078,0,0,0,2.128-7.216,14.876,14.876,0,0,0-.372-7.439,1.488,1.488,0,0,0-.357.61c.342-2.157.67-4.329,1.012-6.5.1-.64.193-1.294.283-1.964.446,5.788-.4,11.62-.134,17.422a20.331,20.331,0,0,0-.58,3.258c.387,5.326,2.6,11.144,6.9,14.313a7.064,7.064,0,0,0,2.366,1.235,8.364,8.364,0,0,0,2.44,0,31.1,31.1,0,0,0,9.284-1.756,11.412,11.412,0,0,0,6.68-6.338,14.882,14.882,0,0,0,.669-4.583,17.6,17.6,0,0,0-.432-4.835,36.849,36.849,0,0,0-2.44-5.639,53.834,53.834,0,0,1-2.767-8.3l-1.294-4.716c-.357-1.339-.729-2.678-1.19-3.987a6.681,6.681,0,0,0-1.651-3.139c-.536-.417-.893-.446-1.131-.208v-.506a53.335,53.335,0,0,0,.342-5.52c-.357-2.976-2.723-5.4-4.255-8.049a15.715,15.715,0,0,1-1.7-4.255c-.089-.327-.149-.64-.208-.982a3.469,3.469,0,0,1,.848-.551l2.648,1.488c-2.336-17.556-1.1-35.96-7.915-52.3-2.976-7.112-8.7-14.521-8.064-22.183a6.249,6.249,0,0,1,.7-9.968c1.146-.625,2.559-.922,3.348-1.979a5.394,5.394,0,0,0,.759-1.919,304.375,304.375,0,0,1,14.7-44.114c1.324-3.139,2.693-6.249,4.076-9.358l4.612-10.489,5.624-12.765c1.9-4.3,3.824-9.21,2.023-13.539-.714-1.711-1.979-3.333-1.8-5.163a32.454,32.454,0,0,1,1.1-3.407,8.482,8.482,0,0,0-.283-3.7c-.372-1.607-.789-3.214-1.22-4.806a26.8,26.8,0,0,1,3.586.684c.714-1.205-.432-2.6-1.131-3.824a12.929,12.929,0,0,1-1.294-5.311l-1.488-15.012a26.641,26.641,0,0,1-.119-6.249c.3-2.2,1.146-4.3,1.577-6.5.818-4.211,0-8.555.268-12.855a57.617,57.617,0,0,1,1.964-11.188c.134-.551.253-1.086.387-1.637a8.933,8.933,0,0,0,2.157.372h1.845a5.949,5.949,0,0,0,.818-.208h.179a8.939,8.939,0,0,0,.878-.342c-.357-.759-.684-1.488-1-2.291-.134-.312-.253-.625-.372-.937s-.342-.878-.491-1.324-.3-.818-.431-1.22-.223-.684-.327-1.027-.283-.937-.417-1.488-.268-.982-.4-1.488l.223-.462a13.04,13.04,0,0,0,2.455,1.681c2.975,5.133,5.668,10.415,8.153,15.741a5,5,0,0,0,.759-1.919,9.2,9.2,0,0,0,1.056,1.354,15.774,15.774,0,0,0,3.467,2.544,8.925,8.925,0,0,0,4.106,1.488,7.662,7.662,0,0,0,5.252-2.276c4.329-3.794,6.487-9.433,8.5-14.878a112.015,112.015,0,0,0,6.4-21.916c1.22-8.079.7-16.47,2.976-24.311-2.068-4.106-3.377-8.644-5.7-12.617a56.393,56.393,0,0,1-3.928-7.365,25.443,25.443,0,0,1-.7-17.02,2.336,2.336,0,0,0-2.723.149,5.693,5.693,0,0,0-1.637,2.38,21.113,21.113,0,0,0-1.622,10,3.986,3.986,0,0,1-.283,2.44,3.065,3.065,0,0,1-2.648,1.116,22.827,22.827,0,0,1-6.13-1.116,56.952,56.952,0,0,0-17.08-1.667,13.563,13.563,0,0,0-1.488-1.488l-.64-.521-.655-.506-.327-.268a7.431,7.431,0,0,1-.625-.55,4.122,4.122,0,0,1-1.488-2.6,3.325,3.325,0,0,1,0-.387,2.881,2.881,0,0,1,0-.357,5.028,5.028,0,0,1,.342-1.041,6.974,6.974,0,0,1,.327-.669l.164-.342c0-.1.1-.223.164-.327a9.809,9.809,0,0,0,.476-1.25,9.147,9.147,0,0,0,.313-1.294,9.754,9.754,0,0,0,.134-1.324v-2.009a13.513,13.513,0,0,0-.551-2.648,14.668,14.668,0,0,0-.714-1.9,21.09,21.09,0,0,0-1.265-2.351,35.988,35.988,0,0,0-3.184-4.33l-.878-1.027-.893-1.012a35.361,35.361,0,0,1-2.589-3.169,12.324,12.324,0,0,1-1.488-2.648c-.119-.312-.223-.625-.312-.952a9.684,9.684,0,0,1-.268-1.845v-.61a22.887,22.887,0,0,1,.119-2.485c.119-1.161.283-2.336.447-3.526.1-.789.223-1.577.327-2.366a7.944,7.944,0,0,1,.149-1.175c.089-.789.178-1.577.238-2.366a22.663,22.663,0,0,0-.387-6.888,13.034,13.034,0,0,0-.7-2.2,13.983,13.983,0,0,0-1.488-2.678,19.341,19.341,0,0,0-8.272-6.442,38.089,38.089,0,0,0-7.573-2.425c-1.042-.223-2.068-.417-3.095-.58-15.473-2.485-31.9,2.217-41.659,14.878-5.088,6.576-9.418,13.956-11.263,22.064s-1.012,17.095,3.556,24.058c1.919,2.976,4.464,5.475,6.145,8.54,1.4,2.5,2.232,5.312,3.735,7.751a18.3,18.3,0,0,0,8.257,6.948l-.654.6a20.059,20.059,0,0,0-4.627.089c-1.577.268-3.109.878-4.7,1.071-1.964.253-3.972-.134-5.951.119-3.66.476-6.665,2.976-9.448,5.43-3.258,2.842-6.755,6.16-7.008,10.415v.119l-2.187,2.976a11.734,11.734,0,0,0-1.369,2.157c-.878,2.068-.387,4.463-.863,6.665a14.255,14.255,0,0,1-1.726,3.973,89.381,89.381,0,0,1-7.439,11.1,18.807,18.807,0,0,1-4.627,4.582,8.331,8.331,0,0,1-4.821,1.369,30.9,30.9,0,0,1-7.052-4.716,45.479,45.479,0,0,1-6.234-7.751c-3.541-5.1,7.439,10.162,3.9,5.044l-31.75-52.906a43.136,43.136,0,0,1-1.25-7.528c0-.967-.4-2.247-1.384-2.276a1.681,1.681,0,0,0-1.116.536,6.457,6.457,0,0,0-2.068,5.5,7.633,7.633,0,0,0-4.865.863,2.782,2.782,0,0,0-.61,3.957v.4a2.113,2.113,0,0,0-1.116,2.232,7.558,7.558,0,0,0-5.222.253c-1.562.878-2.157,3.452-.64,4.463a4.568,4.568,0,0,0-2.916,4.315Zm198.89,7.588a24.576,24.576,0,0,0,2.782.714,44.4,44.4,0,0,1,8.629,2.976,4.732,4.732,0,0,1,2.247,1.681,5,5,0,0,1-.268,4.225l-3.928,10.608c-.625,1.666-1.235,3.333-2.009,4.925-.3.64-.64,1.28-.982,1.9q-.179-.535-.357-1.027a87.061,87.061,0,0,1-2.827-9.879c-.655-2.886-1.205-5.8-1.666-8.719a42.606,42.606,0,0,0-1.651-7.409Zm-4.106-8.317.3.208a3.35,3.35,0,0,1,1.027.714,1.593,1.593,0,0,1,0,1.488Zm-7.1-10.221,4.7.684a6.173,6.173,0,0,1,3.169,1.086,2.127,2.127,0,0,1,.432,2.976,7.084,7.084,0,0,1-1.042.7,2.976,2.976,0,0,0-1.116,3.08,33.334,33.334,0,0,0-2.693-4.181,20.68,20.68,0,0,0-3.139-3.214C1060.235,501.388,1060.146,501,1060.027,500.63Zm-45.185,338.224a16.792,16.792,0,0,0,1.741,0,16.7,16.7,0,0,0-.283,4.225Z" transform="translate(350.55 77.055)" fill="url(#linear-gradient)"/>
    <path id="Path_25" data-name="Path 25" d="M990,426.43c8.168,1.309,17.244,4.463,20.368,12.111,2.351,5.788.536,12.289,0,18.508a14.048,14.048,0,0,0,.179,4.925,17.273,17.273,0,0,0,4.315,6.77,36.06,36.06,0,0,1,6.219,8.7,12.676,12.676,0,0,1,.417,10.415,7.573,7.573,0,0,0-1.027,2.737c-.1,2.128,2.113,3.467,3.749,4.821,6.13,5.073,5.862,14.313,5.951,22.317a112.66,112.66,0,0,0,10.653,47.074,14.387,14.387,0,0,1-16.1-2.1,54.2,54.2,0,0,0,3.66,10.534c-5.192,2.514-11.441-1.622-14.03-6.755s-2.976-11.129-4.761-16.574-5.193-10.251-6.68-15.741a15.129,15.129,0,0,0-1.86-5.267,13.392,13.392,0,0,0-3.273-2.782,31.838,31.838,0,0,1-11.53-15.652c-6.353,1.488-12.825,2.812-19.342,2.232s-13.078-3.526-16.485-9.061c-1.488-2.44-2.336-5.252-3.735-7.751-1.711-3.065-4.24-5.579-6.159-8.525-4.553-6.963-5.386-15.9-3.541-24.028s6.16-15.458,11.263-22.034C958.117,428.647,974.542,423.945,990,426.43Z" transform="translate(381.641 78.099)" fill="#3a3768"/>
    <path id="Path_26" data-name="Path 26" d="M990,426.43c8.168,1.309,17.244,4.463,20.368,12.111,2.351,5.788.536,12.289,0,18.508a14.048,14.048,0,0,0,.179,4.925,17.273,17.273,0,0,0,4.315,6.77,36.06,36.06,0,0,1,6.219,8.7,12.676,12.676,0,0,1,.417,10.415,7.573,7.573,0,0,0-1.027,2.737c-.1,2.128,2.113,3.467,3.749,4.821,6.13,5.073,5.862,14.313,5.951,22.317a112.66,112.66,0,0,0,10.653,47.074,14.387,14.387,0,0,1-16.1-2.1,54.2,54.2,0,0,0,3.66,10.534c-5.192,2.514-11.441-1.622-14.03-6.755s-2.976-11.129-4.761-16.574-5.193-10.251-6.68-15.741a15.129,15.129,0,0,0-1.86-5.267,13.392,13.392,0,0,0-3.273-2.782,31.838,31.838,0,0,1-11.53-15.652c-6.353,1.488-12.825,2.812-19.342,2.232s-13.078-3.526-16.485-9.061c-1.488-2.44-2.336-5.252-3.735-7.751-1.711-3.065-4.24-5.579-6.159-8.525-4.553-6.963-5.386-15.9-3.541-24.028s6.16-15.458,11.263-22.034C958.117,428.647,974.542,423.945,990,426.43Z" transform="translate(381.641 78.099)" fill="#3f3d56"/>
    <path id="Path_27" data-name="Path 27" d="M1014.955,499.2c.461,2.976,1.012,5.832,1.681,8.733a83.555,83.555,0,0,0,2.812,9.849,9.463,9.463,0,0,1,.878,4.463,8.344,8.344,0,0,1-1.086,2.708c-3.734,6.621-8.763,13.018-9.195,20.606-.1,1.889,0,3.928-1.012,5.49q-4.329-9.284-9.537-18.122c-3.63-6.16-7.662-12.379-8.7-19.461a36.9,36.9,0,0,1,.119-10,21.767,21.767,0,0,1,3.6-10.519c2.455-3.214,9.224-8.079,13.6-7.082C1013.244,487.123,1014.3,495.053,1014.955,499.2Z" transform="translate(408.195 107.343)" fill="#f86d70"/>
    <path id="Path_28" data-name="Path 28" d="M941.2,542.756c-4.88-1.994-9.849-4.091-13.733-7.677a44.805,44.805,0,0,1-6.234-7.737l-11.471-16.574c-2.723-3.943-5.52-8.079-6.1-12.825a42.209,42.209,0,0,1-11.471-26.037c0-.982-.387-2.247-1.369-2.276a1.726,1.726,0,0,0-1.13.536,6.472,6.472,0,0,0-2.053,5.5,7.633,7.633,0,0,0-4.865.848c-1.369.982-1.726,3.407-.253,4.225a2.1,2.1,0,0,0-1.488,2.366,7.439,7.439,0,0,0-5.222.253c-1.488.878-2.157,3.437-.64,4.464a4.464,4.464,0,0,0-2.976,4.359,8.748,8.748,0,0,0,1.979,5.133c4.463,5.951,12.2,8.3,17.3,13.628a39.524,39.524,0,0,1,4.464,5.951l14.8,22.525c4.7,7.156,9.537,14.447,16.247,19.773a14.7,14.7,0,0,0,6.041,3.214,6.68,6.68,0,0,0,6.353-1.756c1.488-1.681,1.711-4.107,1.86-6.338C941.6,550.522,940.943,546.58,941.2,542.756Z" transform="translate(350.476 99.484)" fill="#a1616a"/>
    <path id="Path_29" data-name="Path 29" d="M952.717,733.2a12.883,12.883,0,0,0-1.577,1.919,6.712,6.712,0,0,0-.669,5.49,7.44,7.44,0,0,0,3.586,4.24,7.011,7.011,0,0,1,1.131.655,6.673,6.673,0,0,0,.7.6,2.707,2.707,0,0,0,1.488.283,54.171,54.171,0,0,0,11.709-1.994,9.389,9.389,0,0,0,4.835-2.276,9.626,9.626,0,0,0,1.651-3.2l1.384-3.868a45.432,45.432,0,0,0,2.143-7.2,15,15,0,0,0-.387-7.439,2.425,2.425,0,0,0-.52,1.488,16.473,16.473,0,0,1-2.976,7.216,7.346,7.346,0,0,1-1.161,1.488,7.574,7.574,0,0,1-3.481,1.488,42.789,42.789,0,0,1-7.439.952,2.316,2.316,0,0,1-1.012-.119,1.769,1.769,0,0,1-.848-1.056,4.462,4.462,0,0,1,0-2.976c.67-1.875,2.514-3.11,3.407-4.91.655-1.324-.253-2.782-1.607-1.666a41.221,41.221,0,0,0-3.407,3.615Z" transform="translate(388.513 221.812)" fill="#3f3d56"/>
    <path id="Path_30" data-name="Path 30" d="M963.29,715.622c.4,6.234.669,12.959-2.738,18.181-1.22,1.89-2.871,3.467-4.27,5.237a6.145,6.145,0,0,0-1.488,3.154c-.208,2.276,1.934,4.24,4.2,4.657a13.882,13.882,0,0,0,6.74-.967,16.229,16.229,0,0,0,5.728-2.693c2.976-2.515,3.749-6.7,4.344-10.534l1.384-8.927a28.151,28.151,0,0,0,.506-6.5,28.958,28.958,0,0,0-1.741-7.008l-2.291-6.7a3.154,3.154,0,0,0-1.012-1.666,2.975,2.975,0,0,0-1.74-.312c-2.187.1-7.707.907-8.763,3.214C961.177,706.844,963.141,713.271,963.29,715.622Z" transform="translate(390.765 212.605)" fill="#ee8e9e"/>
    <path id="Path_31" data-name="Path 31" d="M963.29,715.622c.4,6.234.669,12.959-2.738,18.181-1.22,1.89-2.871,3.467-4.27,5.237a6.145,6.145,0,0,0-1.488,3.154c-.208,2.276,1.934,4.24,4.2,4.657a13.882,13.882,0,0,0,6.74-.967,16.229,16.229,0,0,0,5.728-2.693c2.976-2.515,3.749-6.7,4.344-10.534l1.384-8.927a28.151,28.151,0,0,0,.506-6.5,28.958,28.958,0,0,0-1.741-7.008l-2.291-6.7a3.154,3.154,0,0,0-1.012-1.666,2.975,2.975,0,0,0-1.74-.312c-2.187.1-7.707.907-8.763,3.214C961.177,706.844,963.141,713.271,963.29,715.622Z" transform="translate(390.765 212.605)" opacity="0.05"/>
    <path id="Path_32" data-name="Path 32" d="M927.552,591.965a.552.552,0,0,0,0,.164,7.441,7.441,0,0,0,.833,2.529,36.574,36.574,0,0,1,3.214,13.018,11.022,11.022,0,0,0,.431,3.288,17.565,17.565,0,0,0,1.681,2.886c1.979,3.228,2.44,7.112,3.11,10.846a85.738,85.738,0,0,0,3.794,14.224c2.276,6.293,5.341,12.75,4.3,19.341a19.346,19.346,0,0,0-.6,4.761,13.742,13.742,0,0,0,1.86,5.014,46.558,46.558,0,0,1,2.1,4.642c.61,1.577,1.265,3.437,1.771,5.177.61,2.143,1.026,4.672-.387,6.383a7.257,7.257,0,0,0-1.146,1.4,3.721,3.721,0,0,0,0,2.41q1.205,5.088,2.589,10.162c.714,2.648,1.488,5.282,2.246,7.915,5.743,19.252,12.23,38.311,16.083,58.025.551,2.842,4.181,4.88,7.008,5.49a9.135,9.135,0,0,0,8.049-2.157,4.947,4.947,0,0,0,.566-.55c2.976-3.184,3.377-8.064,3.169-12.468-1-20.294-11.218-38.862-16.083-58.59a112.825,112.825,0,0,1-3.154-21.737c-1.146-24.5-1.592-50.392,5.327-73.914,1.488-4.895,3.139-10.415.55-14.878-1.636-2.767-4.657-4.463-7.647-5.594a49.246,49.246,0,0,0-38.222.982,11.911,11.911,0,0,0,0,1.488,15.07,15.07,0,0,1-.774,6.755A8.284,8.284,0,0,0,927.552,591.965Z" transform="translate(377.48 151.55)" fill="#3f3d56"/>
    <path id="Path_33" data-name="Path 33" d="M990.94,717.651l1.294,4.716a52.7,52.7,0,0,0,2.752,8.3,36.16,36.16,0,0,1,2.455,5.624,18.183,18.183,0,0,1,.416,4.835,14.778,14.778,0,0,1-.669,4.568,11.412,11.412,0,0,1-6.68,6.338,31.551,31.551,0,0,1-9.269,1.741,7.44,7.44,0,0,1-2.44,0,6.8,6.8,0,0,1-2.366-1.235c-4.3-3.154-6.517-8.927-6.9-14.3a17.568,17.568,0,0,1,.729-3.645c.327-.446,3.586,1.384,2.187,2.975-2.053,2.276,3.972,1.1,7.037.908a28.273,28.273,0,0,0,3.987-.654l4.954-1.057c1.622-.357,3.5-.907,4.062-2.47s-.684-3.407-1.651-4.91c-2.6-4-3.258-8.927-3.868-13.643-.119-.937-1.28-6.963,1.116-5.088a6.692,6.692,0,0,1,1.667,3.139C990.211,714.987,990.568,716.312,990.94,717.651Z" transform="translate(397.96 216.885)" fill="#3f3d56"/>
    <path id="Path_34" data-name="Path 34" d="M942.855,653.9c1.488-1.711,1-4.24.387-6.368-.238-.8-.476-1.592-.744-2.38l19.475-6.576c0,1.741.149,3.482.223,5.222a113.153,113.153,0,0,0,3.154,21.752c4.865,19.713,15.086,38.281,16.083,58.56.223,4.672-.268,9.894-3.719,13.048a9.209,9.209,0,0,1-8.064,2.143c-2.812-.61-6.457-2.648-7.008-5.49-3.853-19.714-10.415-38.772-16.083-58.025q-2.678-8.927-4.835-18.092a3.779,3.779,0,0,1,0-2.4A7.254,7.254,0,0,1,942.855,653.9Z" transform="translate(384.301 181.9)" opacity="0.05"/>
    <path id="Path_35" data-name="Path 35" d="M983.324,703.539c1.488,2.648,3.883,5,4.24,8.034a46,46,0,0,1-.342,5.52,17.316,17.316,0,0,0,.818,4.463q2.827,10.266,6.547,20.264a5.548,5.548,0,0,1,.52,2.752,4.85,4.85,0,0,1-3.228,3.214c-4.627,1.979-9.864,1.845-14.878,1.637a7.782,7.782,0,0,1-4.2-.982c-1.8-1.235-2.246-3.675-2.366-5.847-.342-6.323.729-12.676,0-18.97-.238-2.291-.729-4.553-1.086-6.814a19.982,19.982,0,0,1,.3-9.522,21.791,21.791,0,0,1,3.556-5.951,18.631,18.631,0,0,1,4.954-4.94c.6-.357,2.276-1.488,2.871-.759.313.342.179,1.265.223,1.7a16.875,16.875,0,0,0,.342,1.964A16.142,16.142,0,0,0,983.324,703.539Z" transform="translate(397.661 209.616)" fill="#ee8e9e"/>
    <path id="Path_36" data-name="Path 36" d="M966.22,599.875a5.387,5.387,0,0,1,.372,4.463c-.654,2.693-1.726,5.267-2.6,7.9a109.91,109.91,0,0,0-3.362,14.357c-.818,4.389-2.544,9.269-1.83,13.688a97.525,97.525,0,0,0-10.415,32.449c-.4,2.9,6.055,6.665,5.951,9.6-.238,5.832-4.895,6.293-1.488,10.95.164.238-1.294,5.445-1.1,5.669,1.4,1.681,3.169,2.976,4.672,4.6a35.154,35.154,0,0,1,4.925,7.216c8.927,16.039,21.707,34.22,17.75,52.073a3.184,3.184,0,0,0,1.7,3.214,8.763,8.763,0,0,0,3.749.863h.625c2.976-3.184,3.377-8.064,3.169-12.468-1-20.294-11.218-38.862-16.083-58.59a112.86,112.86,0,0,1-3.154-21.737c-1.146-24.5-1.592-50.392,5.326-73.914,1.488-4.895,3.139-10.415.55-14.878-1.636-2.767-4.657-4.463-7.647-5.594a49.246,49.246,0,0,0-38.222.982,11.888,11.888,0,0,0,0,1.488,15.07,15.07,0,0,1-.774,6.755,8.288,8.288,0,0,0-.759,2.976s-.357-3.943-.357-3.883c7.96,1.146,16.262,6.338,24.221,7.439a55.323,55.323,0,0,1,12.14,2.678A5.267,5.267,0,0,1,966.22,599.875Z" transform="translate(377.316 151.541)" opacity="0.05"/>
    <path id="Path_37" data-name="Path 37" d="M1021.765,565.389c1.071,3.407,2.023,6.844,2.827,10.311a8.421,8.421,0,0,1,.282,3.69,32.4,32.4,0,0,0-1.1,3.407c-.179,1.83,1.086,3.437,1.8,5.148,1.8,4.344-.119,9.239-2.008,13.539l-5.639,12.751-4.612,10.415c-1.369,3.109-2.738,6.219-4.062,9.358a304.271,304.271,0,0,0-14.7,44.054,5.4,5.4,0,0,1-.759,1.919c-.789,1.042-2.2,1.339-3.348,1.979a6.234,6.234,0,0,0-.684,9.954c-.655,7.662,5.088,15.057,8.049,22.153,6.8,16.366,5.565,34.7,7.915,52.222l-2.648-1.488c-2.544,1.161-2.455,4.761-3.809,7.186-2.053,3.66-7.067,4.181-11.248,3.9a8.774,8.774,0,0,1-3.764-.863,3.169,3.169,0,0,1-1.681-3.214c3.943-17.854-8.927-36.079-17.765-52.073a34.672,34.672,0,0,0-4.925-7.2c-1.488-1.592-3.258-2.976-4.672-4.612-3.913-4.7-4.463-11.337-4.151-17.452a97.78,97.78,0,0,1,11.114-41.212c-.7-4.463,1.027-9.3,1.845-13.688a107.5,107.5,0,0,1,3.348-14.357c.878-2.633,1.949-5.207,2.6-7.9a5.386,5.386,0,0,0-.357-4.464,5.237,5.237,0,0,0-2.515-1.622,55.986,55.986,0,0,0-12.14-2.678l-27.346-3.928c-.878-5.624-1.77-11.9-1.161-17.526A26.944,26.944,0,0,1,945.8,560.539a4.062,4.062,0,0,1,3.556.223A142.578,142.578,0,0,1,1021.765,565.389Z" transform="translate(376.851 142.642)" fill="#3f3d56"/>
    <path id="Path_38" data-name="Path 38" d="M986.579,467.956a13.39,13.39,0,0,0,1.19,7.826,12.229,12.229,0,0,0,3.109,3.437,23.046,23.046,0,0,0,9.016,4.463c1.934.491,4.106.818,5.386,2.366,1.919,2.321.64,5.817-1,8.347-2.827,4.463-6.77,8.406-11.813,9.775-4.032,1.1-8.347.431-12.468,1.146-2.976.521-5.8,1.756-8.748,2.455a25.813,25.813,0,0,1-23.8-6.621c4.374-3.363,8.927-6.948,11.2-11.992A17.05,17.05,0,0,0,959.5,477.7c-1.056-3.734-3.422-7.439-2.678-11.188s4.464-6.427,8.2-7.722a52.575,52.575,0,0,1,10.31-2.083c1.919-.268,14.164-2.976,14.878-1.637.432.759-2.113,5.222-2.425,6.2A23.883,23.883,0,0,0,986.579,467.956Z" transform="translate(387.19 92.202)" fill="#a1616a"/>
    <path id="Path_39" data-name="Path 39" d="M986.579,467.956a13.39,13.39,0,0,0,1.19,7.826,12.229,12.229,0,0,0,3.109,3.437,23.046,23.046,0,0,0,9.016,4.463c1.934.491,4.106.818,5.386,2.366,1.919,2.321.64,5.817-1,8.347-2.827,4.463-6.77,8.406-11.813,9.775-4.032,1.1-8.347.431-12.468,1.146-2.976.521-5.8,1.756-8.748,2.455a25.813,25.813,0,0,1-23.8-6.621c4.374-3.363,8.927-6.948,11.2-11.992A17.05,17.05,0,0,0,959.5,477.7c-1.056-3.734-3.422-7.439-2.678-11.188s4.464-6.427,8.2-7.722a52.575,52.575,0,0,1,10.31-2.083c1.919-.268,14.164-2.976,14.878-1.637.432.759-2.113,5.222-2.425,6.2A23.883,23.883,0,0,0,986.579,467.956Z" transform="translate(387.19 92.202)" opacity="0.05"/>
    <circle id="Ellipse_20" data-name="Ellipse 20" cx="24.832" cy="24.832" r="24.832" transform="translate(1333.539 519.422)" fill="#a1616a"/>
    <path id="Path_40" data-name="Path 40" d="M993.023,483.262,976.2,486.089a63.039,63.039,0,0,1-12.587,1.265,35.994,35.994,0,0,0-6.933,0c-1.592.268-3.11.878-4.716,1.071-1.964.253-3.958-.119-5.951.134-3.66.461-6.665,2.976-9.448,5.416-3.258,2.827-6.755,6.145-6.993,10.415a2.973,2.973,0,0,0,.193,1.488,4.358,4.358,0,0,0,1.25,1.309c3.095,2.529,4.835,6.323,7.037,9.671a37.356,37.356,0,0,0,8.361,9.016c.744-.476,2.143.774,1.815,1.577s-1.116,1.384-1.384,2.217c-.6,1.9,1.756,3.3,2.723,5.059s.491,3.958.6,5.951,1,4.359,1.294,6.591c.669,5.163-1.875,10.608,0,15.5a4.865,4.865,0,0,0-4.835,3.764,14.208,14.208,0,0,0,.193,6.606,9.09,9.09,0,0,0-4.464,8.3,1.488,1.488,0,0,1-1.071,1.979,8.377,8.377,0,0,0-5.163,7.781,3.826,3.826,0,0,1-.149,1.651,3.632,3.632,0,0,1-1.22,1.25,9.7,9.7,0,0,0-3.615,7.588,5.564,5.564,0,0,0,2.559,4.969A46.3,46.3,0,0,0,945,610.024a101.622,101.622,0,0,0,10.95,1.934,98.18,98.18,0,0,0,10.251.313l22.526-.089c6.323,0,12.661,0,18.984-.476,5.951-.387,11.9-1.131,17.63.417.714-1.205-.432-2.6-1.131-3.824a12.807,12.807,0,0,1-1.294-5.3l-1.413-15.012a26.388,26.388,0,0,1-.119-6.219c.313-2.217,1.146-4.315,1.577-6.5.818-4.21,0-8.555.268-12.84a57.3,57.3,0,0,1,1.964-11.173l4.463-18.374a70.952,70.952,0,0,1,2.2-9.209q5.133-13.241,10.786-26.245a2.708,2.708,0,0,0-.193-2.321l-3.72-6.68a42.654,42.654,0,0,0-3.407-5.43,21.5,21.5,0,0,0-12.572-7.722,22.228,22.228,0,0,0-14.61,2.172c-1.741.922-3.348,2.068-5.118,2.976C1000.03,481.908,996.385,483.485,993.023,483.262Z" transform="translate(378.455 102.04)" fill="#f86d70"/>
    <path id="Path_41" data-name="Path 41" d="M941.874,491.5l-5.862,7.826a9.968,9.968,0,0,0-1.369,2.157c-.893,2.053-.4,4.463-.878,6.636a13.839,13.839,0,0,1-1.711,3.973,91.625,91.625,0,0,1-7.439,11.1,19.887,19.887,0,0,1-4.627,4.583,7.677,7.677,0,0,1-6.249,1.1,3.912,3.912,0,0,1,2.053,1.86,22.7,22.7,0,0,1,1.488,14.521,14.876,14.876,0,0,1-1.636,4.761,7.141,7.141,0,0,1-3.734,3.229A5.5,5.5,0,0,0,918.4,557.9a10.848,10.848,0,0,0,3.214-1.607l9.418-6.1a25.024,25.024,0,0,0,4.389-3.288c1.756-1.756,2.976-3.972,4.7-5.788,2.976-3.08,7.2-4.925,9.269-8.644,1.294-2.321,1.488-5.073,2.306-7.618.521-1.651,1.294-3.229,1.785-4.895a21.871,21.871,0,0,0-1.934-15.682C949.12,499.445,945.356,495.606,941.874,491.5Z" transform="translate(369.853 110.153)" fill="#f86d70"/>
    <path id="Path_42" data-name="Path 42" d="M947.791,451.818a32.554,32.554,0,0,1,8.734-9.091c4.627-3.467,9.968-6.338,15.756-6.665a16.753,16.753,0,0,1,7.082,1.161c.119-7.022,1.86-11.679,6.234-10.98,8.168,1.309,17.244,4.463,20.368,12.111,2.351,5.788.536,12.289,0,18.508a14.048,14.048,0,0,0,.179,4.925,17.273,17.273,0,0,0,4.315,6.77,36.06,36.06,0,0,1,6.219,8.7,12.675,12.675,0,0,1,.417,10.415,7.576,7.576,0,0,0-1.027,2.737c-.1,2.128,2.113,3.467,3.749,4.821,6.13,5.073,5.862,14.313,5.951,22.317a112.66,112.66,0,0,0,10.653,47.074,14.387,14.387,0,0,1-16.1-2.1,54.2,54.2,0,0,0,3.66,10.534c-5.192,2.514-11.441-1.622-14.03-6.755s-2.976-11.129-4.761-16.574S1000,539.48,998.51,533.99a15.131,15.131,0,0,0-1.86-5.267,13.394,13.394,0,0,0-3.273-2.782c-5.341-3.839,2.529-32.91.446-39.144-3.11.67-8.823-14.328-12.081-29.578a15.4,15.4,0,0,1-7.067.714,8.51,8.51,0,0,0-2.529-.178,6.723,6.723,0,0,0-2.2.893,54.328,54.328,0,0,1-7.513,3.868c-5.386,2.009-11.322,1.741-17.05,1.488a16.9,16.9,0,0,1,2.41-12.185Z" transform="translate(386.045 78.286)" fill="#3a3768"/>
    <path id="Path_43" data-name="Path 43" d="M947.791,451.818a32.554,32.554,0,0,1,8.734-9.091c4.627-3.467,9.968-6.338,15.756-6.665a16.753,16.753,0,0,1,7.082,1.161c.119-7.022,1.86-11.679,6.234-10.98,8.168,1.309,17.244,4.463,20.368,12.111,2.351,5.788.536,12.289,0,18.508a14.048,14.048,0,0,0,.179,4.925,17.273,17.273,0,0,0,4.315,6.77,36.06,36.06,0,0,1,6.219,8.7,12.675,12.675,0,0,1,.417,10.415,7.576,7.576,0,0,0-1.027,2.737c-.1,2.128,2.113,3.467,3.749,4.821,6.13,5.073,5.862,14.313,5.951,22.317a112.66,112.66,0,0,0,10.653,47.074,14.387,14.387,0,0,1-16.1-2.1,54.2,54.2,0,0,0,3.66,10.534c-5.192,2.514-11.441-1.622-14.03-6.755s-2.976-11.129-4.761-16.574S1000,539.48,998.51,533.99a15.131,15.131,0,0,0-1.86-5.267,13.394,13.394,0,0,0-3.273-2.782c-5.341-3.839,2.529-32.91.446-39.144-3.11.67-8.823-14.328-12.081-29.578a15.4,15.4,0,0,1-7.067.714,8.51,8.51,0,0,0-2.529-.178,6.723,6.723,0,0,0-2.2.893,54.328,54.328,0,0,1-7.513,3.868c-5.386,2.009-11.322,1.741-17.05,1.488a16.9,16.9,0,0,1,2.41-12.185Z" transform="translate(386.045 78.286)" fill="#3f3d56"/>
    <g id="Group_4" data-name="Group 4" transform="translate(1335.919 504.411)" opacity="0.1">
      <path id="Path_44" data-name="Path 44" d="M1020.85,564.595a112.894,112.894,0,0,1-10.653-47.074c0-7.96.223-17.2-5.951-22.317-1.637-1.354-3.853-2.693-3.764-4.82a7.6,7.6,0,0,1,1.042-2.738,12.736,12.736,0,0,0-.417-10.415,36.067,36.067,0,0,0-6.219-8.7,17.3,17.3,0,0,1-4.329-6.77,14.787,14.787,0,0,1-.179-4.925c.61-6.219,2.44-12.721,0-18.508-2.975-7.439-11.62-10.593-19.579-11.977a4.464,4.464,0,0,1,2.142-.134c8.168,1.309,17.244,4.463,20.368,12.111,2.351,5.788.536,12.289,0,18.508a14.048,14.048,0,0,0,.179,4.925,17.272,17.272,0,0,0,4.315,6.77,36.064,36.064,0,0,1,6.219,8.7,12.675,12.675,0,0,1,.417,10.415,7.576,7.576,0,0,0-1.027,2.737c-.1,2.128,2.113,3.467,3.749,4.821,6.13,5.073,5.862,14.313,5.951,22.317a112.657,112.657,0,0,0,10.653,47.074,13.911,13.911,0,0,1-7.885,1.488A13.466,13.466,0,0,0,1020.85,564.595Z" transform="translate(-937.339 -426.141)"/>
      <path id="Path_45" data-name="Path 45" d="M997.29,528.324a53.237,53.237,0,0,1-3.66-10.534,13.586,13.586,0,0,0,3.526,2.336,55.353,55.353,0,0,0,2.976,8.2,7.8,7.8,0,0,1-4.806.61,7.561,7.561,0,0,0,1.964-.61Z" transform="translate(-926.203 -381.434)"/>
      <path id="Path_46" data-name="Path 46" d="M967.721,433.973a17.141,17.141,0,0,0-4.731-1.116h.565a16.632,16.632,0,0,1,4.2.312C967.736,433.408,967.721,433.676,967.721,433.973Z" transform="translate(-941.149 -422.876)"/>
      <path id="Path_47" data-name="Path 47" d="M957.981,452.171a54.478,54.478,0,0,0,7.528-3.868,6.607,6.607,0,0,1,2.2-.893,8.123,8.123,0,0,1,2.321.134,9.314,9.314,0,0,0-1.607.759,54.306,54.306,0,0,1-7.513,3.868,33.892,33.892,0,0,1-12.6,1.637A29.861,29.861,0,0,0,957.981,452.171Z" transform="translate(-948.31 -415.781)"/>
      <path id="Path_48" data-name="Path 48" d="M968.966,447l.134.67a14.581,14.581,0,0,1-3.69.1,16.365,16.365,0,0,0,3.556-.774Z" transform="translate(-939.968 -415.966)"/>
    </g>
    <path id="Path_49" data-name="Path 49" d="M1008.013,553.711a9.075,9.075,0,0,0,2.44,7.261,16.17,16.17,0,0,0,3.452,2.544,9.374,9.374,0,0,0,4.106,1.488,7.752,7.752,0,0,0,5.252-2.291c4.33-3.794,6.487-9.418,8.481-14.8a111.081,111.081,0,0,0,6.413-21.886c1.22-8.079.7-16.455,2.975-24.3-2.053-4.106-3.363-8.629-5.7-12.587a59.321,59.321,0,0,1-3.928-7.365,25.443,25.443,0,0,1-.7-16.991,2.292,2.292,0,0,0-2.708.134,5.7,5.7,0,0,0-1.637,2.38,21.082,21.082,0,0,0-1.621,9.983,3.973,3.973,0,0,1-.283,2.44,3.065,3.065,0,0,1-2.648,1.116,23.506,23.506,0,0,1-6.13-1.1,56.815,56.815,0,0,0-18.88-1.562,8.928,8.928,0,0,0-3.69.893,3.423,3.423,0,0,0-1.89,3.08l15.086,2.217a6.234,6.234,0,0,1,3.184,1.086,2.158,2.158,0,0,1,.432,2.976,5.955,5.955,0,0,1-1.042.684,3.109,3.109,0,0,0,.119,4.969,3.183,3.183,0,0,1,1.026.714c.625.833-.193,1.919-.461,2.976a3.69,3.69,0,0,0,1.815,3.764,13.272,13.272,0,0,0,4.21,1.413,44.371,44.371,0,0,1,8.63,2.976,4.733,4.733,0,0,1,2.246,1.681,5.044,5.044,0,0,1-.268,4.225l-3.928,10.593c-.625,1.666-1.235,3.318-2.009,4.925-1,2.068-2.232,4.017-3.258,6.085a60.781,60.781,0,0,0-2.455,5.951C1012.64,544.754,1008.7,547.983,1008.013,553.711Z" transform="translate(408.59 96.936)" fill="#a1616a"/>
    <path id="Path_50" data-name="Path 50" d="M626.806,249.17V748.2a165.3,165.3,0,0,0-51.523-7.945c-74.2,0-134.453,52.5-134.453,126.7s60.256,126.122,134.453,126.122,134.825-54.632,134.825-133.9V512.631H1101.4V748.2a165.221,165.221,0,0,0-51.523-7.945c-74.2,0-134.453,52.5-134.453,126.7s60.256,126.122,134.453,126.122,134.825-54.632,134.825-133.9v-610Zm474.611,185.976H710.124V332.487h391.294Z" transform="translate(140.055 -8.058)" fill="#fb6464"/>
    <path id="Path_51" data-name="Path 51" d="M362.124,212.17V547.076a126.687,126.687,0,1,0,63.381,109.5V339.08H552.564V212.17Z" transform="translate(8.98 -26.107)" fill="#fb6464"/>
    <path id="Path_52" data-name="Path 52" d="M310.3,751.915a80.85,80.85,0,0,0-23.284-8.243,106.468,106.468,0,0,0,17.422-3.913c15.131-4.791,22.763-11.218,17.035-14.357s-22.644-1.815-37.776,2.976A58.32,58.32,0,0,0,269.2,734.82c-1.562-3.318-5.817-7.171-12.453-10.816-13.39-7.439-31.512-11.114-40.349-8.317s-5.1,11.04,8.347,18.434a80.536,80.536,0,0,0,20.829,7.752,122.492,122.492,0,0,0-14.357,2.544c-16.47,3.958-25.992,9.924-21.276,13.39s21.915,2.976,38.385-.952a71.735,71.735,0,0,0,17.259-6.1c1.354,3.422,5.683,7.439,12.676,11.322,13.39,7.439,31.512,11.114,40.349,8.317S323.694,759.295,310.3,751.915Z" transform="translate(26.834 219.057)" fill="#fb6464"/>
    <path id="Path_53" data-name="Path 53" d="M356.868,672.549a39.429,39.429,0,0,0-11.292-4,53.157,53.157,0,0,0,8.451-1.89c7.35-2.336,11.054-5.445,8.272-6.978s-10.995-.878-18.345,1.488a29.271,29.271,0,0,0-7.037,3.124c-.759-1.607-2.827-3.482-6.041-5.252-6.531-3.586-15.31-5.386-19.594-4.032s-2.47,5.371,4.047,8.927a38.99,38.99,0,0,0,10.147,3.749,60.99,60.99,0,0,0-6.978,1.25c-7.99,1.9-12.617,4.806-10.325,6.472s10.638,1.488,18.627-.461a35.38,35.38,0,0,0,8.391-2.976c.655,1.651,2.753,3.63,6.145,5.49,6.532,3.586,15.295,5.4,19.594,4.047S363.4,676.135,356.868,672.549Z" transform="translate(75.058 189.694)" fill="#fb6464"/>
    <path id="Path_54" data-name="Path 54" d="M179.449,596.257a24.741,24.741,0,0,0-7.112-2.5,30.978,30.978,0,0,0,5.326-1.19c4.6-1.488,6.918-3.407,5.178-4.359s-6.874-.55-11.471.908a18.273,18.273,0,0,0-4.463,1.949,8.7,8.7,0,0,0-3.779-3.273c-4.077-2.246-9.567-3.377-12.26-2.529s-1.488,3.348,2.544,5.594a24.234,24.234,0,0,0,6.353,2.351,36.658,36.658,0,0,0-4.374.789c-5,1.19-7.9,2.976-6.472,4.047s6.665.908,11.664-.283a22.228,22.228,0,0,0,5.252-1.86,8.287,8.287,0,0,0,3.839,3.437c4.091,2.247,9.581,3.377,12.26,2.529S183.526,598.5,179.449,596.257Z" transform="translate(-2.519 155.753)" fill="#fb6464"/>
    <path id="Path_55" data-name="Path 55" d="M523.9,212.17V318.251H396.84v317.5a126.866,126.866,0,0,1-205.6,99.52,126.88,126.88,0,0,0,226.43-78.69V339.08H544.729V212.17Z" transform="translate(18.303 -26.107)" opacity="0.1"/>
    <path id="Path_56" data-name="Path 56" d="M173.87,236.854l.431,3.243,14.06,1.994s1.146-.863,2.976-2.038c3.333-2.187,8.927-5.445,13.688-6.368,7.365-1.488,30.783-11.977,23.24-12.661s-6.77.878-6.77.878-8.317-8.168-16.9-.7c-6.517,5.669-20.829,11.769-27.361,14.372C175.15,236.392,173.87,236.854,173.87,236.854Z" transform="translate(9.83 -23.237)" fill="#efb7b9"/>
    <path id="Path_57" data-name="Path 57" d="M218.432,206.21a23.8,23.8,0,0,1,6.74-1.726,8.2,8.2,0,0,1,6.412,2.142c.908.937,1.488,2.142,2.38,3.095,4.285,4.582,12.6,1.16,17.764,4.716,3.169,2.2,4.151,6.353,5.282,10.058s3.184,7.766,6.963,8.555a20.648,20.648,0,0,0,5.49-.208,5.4,5.4,0,0,1,4.94,1.815c1.756,2.663-.67,7.112,1.875,9.016,2.276,1.681,6.4-.67,7.99,1.666a3.482,3.482,0,0,1-.551,3.868,26.887,26.887,0,0,0-2.589,3.243,4.91,4.91,0,0,0,4.835,7.171c1.607-.164,3.318-1.071,4.716-.283a3.333,3.333,0,0,1,1.488,2.633,6.918,6.918,0,0,1-6.219,7.275c-2.738.179-5.252-1.309-7.692-2.559s-5.311-2.306-7.841-1.265a12.112,12.112,0,0,0-3.154,2.217,34.532,34.532,0,0,1-9.7,5.743c-3.095,1.22-6.7,1.949-9.671.432-3.348-1.711-5.073-5.877-8.614-7.142s-7.588,1.1-10.98,3.11-7.93,3.69-10.995,1.22c-3.3-2.663-2.291-8-4.3-11.739a11.531,11.531,0,0,0-3.229-3.556c-2.262-1.741-4.835-3.05-7.112-4.761a11.9,11.9,0,0,1-4.85-6.814c-.67-3.377.937-6.755,2.767-9.671s3.958-5.773,4.553-9.15c.446-2.529,0-5.163.58-7.662a9.448,9.448,0,0,1,6.13-6.472c1.666-.565,1.964-.417,2.812-1.889a5.951,5.951,0,0,1,3.779-3.08Z" transform="translate(21.433 -29.877)" fill="#3f3d56"/>
    <g id="Group_5" data-name="Group 5" transform="translate(219.106 205.806)" opacity="0.1">
      <path id="Path_58" data-name="Path 58" d="M249.542,225.44a12.662,12.662,0,0,1,.268,4.463,12.065,12.065,0,0,1-.268-4.463Z" transform="translate(-172.41 -225.44)"/>
      <path id="Path_59" data-name="Path 59" d="M254.076,239.266a4.864,4.864,0,0,0-.506,1.637,5.028,5.028,0,0,1,.178-4.166,26.465,26.465,0,0,1,2.589-3.228,5.489,5.489,0,0,0,.744-1.488l.119.134a3.481,3.481,0,0,1-.536,3.853,26.6,26.6,0,0,0-2.589,3.258Z" transform="translate(-170.577 -222.23)"/>
      <path id="Path_60" data-name="Path 60" d="M202.358,236.2c2.276,1.726,4.835,2.976,7.1,4.776a11.337,11.337,0,0,1,3.229,3.556c2.009,3.734,1,9.076,4.3,11.739,3.065,2.47,7.618.8,11.01-1.22s7.26-4.463,10.965-3.109,5.267,5.43,8.629,7.141c2.976,1.488,6.561.774,9.671-.431a34.666,34.666,0,0,0,9.686-5.743,12.8,12.8,0,0,1,3.154-2.232c2.544-1.027,5.416,0,7.856,1.28s4.954,2.738,7.677,2.559A6.993,6.993,0,0,0,291.8,248.4a4.464,4.464,0,0,1,.327,1.309,6.9,6.9,0,0,1-6.174,7.32c-2.723.179-5.252-1.309-7.677-2.544s-5.311-2.306-7.856-1.28a13.138,13.138,0,0,0-3.154,2.217,34.712,34.712,0,0,1-9.686,5.758c-3.095,1.205-6.71,1.934-9.671.431-3.362-1.711-5.073-5.877-8.629-7.141s-7.588,1.086-10.965,3.109-7.945,3.69-11.01,1.205c-3.3-2.663-2.291-7.99-4.3-11.739a11.456,11.456,0,0,0-3.229-3.541c-2.247-1.741-4.82-3.05-7.1-4.776a11.9,11.9,0,0,1-4.865-6.814,8.049,8.049,0,0,1-.149-1.785A12.438,12.438,0,0,0,202.358,236.2Z" transform="translate(-197.668 -223.152)"/>
    </g>
    <path id="Path_61" data-name="Path 61" d="M206.543,286.213l-5.1,1.086s5.029,8.272,12.78,2.842S206.543,286.213,206.543,286.213Z" transform="translate(23.279 9.919)" fill="#4c4981"/>
    <path id="Path_62" data-name="Path 62" d="M206.543,286.213l-5.1,1.086s5.029,8.272,12.78,2.842S206.543,286.213,206.543,286.213Z" transform="translate(23.279 9.919)" opacity="0.1"/>
    <path id="Path_63" data-name="Path 63" d="M279.32,341.778s7.082,3.66,13.673,7.9c4.731,2.976,9.21,6.353,10.668,8.838,3.511,5.951,20.576,12.408,20.576,12.408l16.931,12.884c3.987,1.324,7.871,6.174,9.462,8.347.476.655.759,1.071.759,1.071l6.784-.878,3.571-4.642s.908-10.236-6.145-10.117a9.7,9.7,0,0,1-3.972-1.027c-7.588-3.348-18.2-13.911-18.2-13.911S315.4,340.127,310,339.383a8.919,8.919,0,0,1-1.7-.431c-5.49-1.919-13.39-9-13.39-9Z" transform="translate(61.269 31.347)" fill="#efb7b9"/>
    <path id="Path_64" data-name="Path 64" d="M232.426,390.28c1.8,10.816,10,31.5,12.632,35.812,3.273,5.341,4.984,16.039,4.984,16.039l.967,7.439a8.63,8.63,0,0,0,1.071,2.886,15.735,15.735,0,0,0,.952,1.488l13.584-4.181s-.789-3.124-1.979-6.71-2.976-8.094-4.672-9.76c-3.318-3.258-3.809-14.759-3.809-14.759s-2.767-22.109-3.615-24.891a38.388,38.388,0,0,1-1.488-8.153c-.134-1.488-.223-3.184-.238-5.1a104.283,104.283,0,0,0-2.142-16.366l-15.845,2.871-.417,17.72a11.813,11.813,0,0,0,.015,5.669Z" transform="translate(38.222 47.967)" fill="#efb7b9"/>
    <path id="Path_65" data-name="Path 65" d="M327.25,376.872c.476.655.759,1.071.759,1.071l6.784-.878,3.571-4.642s.908-10.236-6.145-10.117a9.7,9.7,0,0,1-3.972-1.027c-.58,3.065,2.857,5.609,2.857,5.609s1.488,1.041,1.086,5.847C331.966,376.009,329.065,376.709,327.25,376.872Z" transform="translate(84.65 46.63)" opacity="0.1"/>
    <path id="Path_66" data-name="Path 66" d="M326.75,382c.446,1.651,4.731,4.077,7.707,5.594,1.488.744,2.6,1.265,2.827,1.384.684.342,4.285-3.66,4.776-6.889s9.076-13.271,9.076-13.271a36.006,36.006,0,0,0,3.184-12.572c.327-4.389-1.488-4.746-3.645-3.749a14.417,14.417,0,0,0-4.077,3.2,10.891,10.891,0,0,1-5.282,2.738,25.844,25.844,0,0,0-7.6,3.243c-2.083,1.339-4.106,2.976-4.463,4.463-.789,3.169,2.812,5.847,2.812,5.847s1.488,1.041,1.086,5.847S326.705,381.855,326.75,382Z" transform="translate(84.406 42.123)" fill="#444053"/>
    <path id="Path_67" data-name="Path 67" d="M331.93,387.6c1.488.744,2.6,1.265,2.827,1.384.684.342,4.285-3.66,4.776-6.889s9.076-13.271,9.076-13.271a36.006,36.006,0,0,0,3.184-12.572c.327-4.389-1.488-4.746-3.645-3.749-.357,3.482-1.235,10.251-2.976,13.777C343,370.474,334.3,383.953,331.93,387.6Z" transform="translate(86.933 42.123)" opacity="0.1"/>
    <path id="Path_68" data-name="Path 68" d="M245.825,426.332l-.134.253a15.71,15.71,0,0,0,.952,1.488l13.584-4.181s-.789-3.124-1.979-6.71c-5.371-1.488-13.078,7.9-13.078,7.9Z" transform="translate(44.611 73.822)" opacity="0.1"/>
    <path id="Path_69" data-name="Path 69" d="M245.129,436.238s11.337,3.972,16.366,3.362c3.883-.461,4.047-2.261,3.779-5.951-.089-1.19-.208-2.559-.283-4.136-.253-6.546-2.886-7.871-2.886-7.871-4.315-11.307-16.738,3.868-16.738,3.868l.64,1.25a13.688,13.688,0,0,0-1.265,6.174,18.031,18.031,0,0,0,.387,3.3Z" transform="translate(44.399 74.033)" fill="#444053"/>
    <path id="Path_70" data-name="Path 70" d="M245.127,431.163s11.337,3.972,16.366,3.362c3.883-.461,4.047-2.261,3.779-5.951a12.007,12.007,0,0,1-9.239,2.648,36.347,36.347,0,0,1-11.292-3.362,18.031,18.031,0,0,0,.387,3.3Z" transform="translate(44.401 79.109)" opacity="0.1"/>
    <path id="Path_71" data-name="Path 71" d="M207.23,251.857l4.463,19.342.908,3.987,8.2,1.041,8.451,1.071,9.195-3.333s2.559-8.748.446-15.31a9.7,9.7,0,0,0-4.255-5.609,9.449,9.449,0,0,1-1.771-1.369,7.766,7.766,0,0,1-1.488-2.128,8.794,8.794,0,0,1-.789-3.08c-.461-5.222,2.842-10.935,2.842-10.935s-19.49-6.651-17.973-2.351c1,2.782-1.756,7.632-3.809,10.7-1.116,1.651-2.023,2.8-2.023,2.8Z" transform="translate(26.103 -16.562)" fill="#efb7b9"/>
    <circle id="Ellipse_21" data-name="Ellipse 21" cx="16.931" cy="16.931" r="16.931" transform="translate(233.988 193.978)" opacity="0.1"/>
    <circle id="Ellipse_22" data-name="Ellipse 22" cx="16.931" cy="16.931" r="16.931" transform="translate(233.913 193.353)" fill="#efb7b9"/>
    <path id="Path_72" data-name="Path 72" d="M208.67,310.379c.8,3.734,4.463,9.611,4.463,9.611l23.641,5.8,16.887-17.675V308c-.521-1.651-6.963-22.5-2.306-27.629,4.88-5.341,2.976-20.413,2.976-20.413s-8.436-9.7-10.147-12.051-12.661-4.2-12.661-4.2c.55.744,1.056,1.488,1.488,2.128a20.829,20.829,0,0,1,2.693,5.713,8.54,8.54,0,0,1-.223,6.2,6.814,6.814,0,0,0-.58,1.592c-1.845,8.079-10.266,6.948-13.613,6.145-.863-.208-1.4-.387-1.4-.387l-8.049.253-5.059.164s2.306,39.844,1.756,43.013a5.088,5.088,0,0,0,.134,1.845Z" transform="translate(25.884 -10.722)" fill="#f86d70"/>
    <path id="Path_73" data-name="Path 73" d="M206.9,260.506l14.655-1.919h-.268c-.863-.208-1.384-.387-1.384-.387l-8.064.253-5.044.164S206.83,259.271,206.9,260.506Z" transform="translate(25.893 -3.653)" fill="#925978"/>
    <path id="Path_74" data-name="Path 74" d="M167.52,210.395l6.353,1.547,10.013-1.309,2.6-2.723Z" transform="translate(81.718 101.418)" fill="#925978"/>
    <path id="Path_75" data-name="Path 75" d="M174.63,211.5l2.871.7,1.175-1.235Z" transform="translate(85.186 102.906)" fill="#925978"/>
    <path id="Path_76" data-name="Path 76" d="M208.66,312.247c3.779.387,7.261.58,7.261.58L235.4,312.1V291.76a28.848,28.848,0,0,0-7.856-5.178c-3.392-1.175-7.439-4.776-6.636-14.268a13.61,13.61,0,0,1,.164-1.7,21.84,21.84,0,0,0,.179-3.2,17.11,17.11,0,0,0-5.4-12.527,2.586,2.586,0,0,0-.283-.253l-3.169-14.759a3.153,3.153,0,0,0-.64.089c-1.116,1.651-2.023,2.8-2.023,2.8l-2.336,5.118,4.463,19.342-5.059.164s2.306,39.844,1.756,43.013A5.088,5.088,0,0,0,208.66,312.247Z" transform="translate(25.893 -12.59)" opacity="0.1"/>
    <path id="Path_77" data-name="Path 77" d="M221.944,312.947l19.475-.714V291.879a29.026,29.026,0,0,0-7.841-5.178c-3.586-1.25-7.856-5.178-6.472-15.964a17.66,17.66,0,0,0-5.178-15.815l-.3-.253-3.169-14.759a6.859,6.859,0,0,0-5.014,2.871,12.575,12.575,0,0,1-1.175,1.726,2.976,2.976,0,0,1-3.913,1.16c-2.053-.908-10.891-4.642-12.87-.982s-2.351,25.456-2.351,25.456a16.648,16.648,0,0,1,5.728,9.418c1.354,6.234,3.615,6.383,3.615,6.383l2.44,17.854s2.217,3.883.565,6.026" transform="translate(19.23 -12.575)" fill="#444053"/>
    <path id="Path_78" data-name="Path 78" d="M206,244.483l3.318,9.939,6.338.55-.3-.253-3.169-14.759a6.859,6.859,0,0,0-5.014,2.871A12.574,12.574,0,0,1,206,244.483Z" transform="translate(25.503 -12.551)" fill="#444053"/>
    <path id="Path_79" data-name="Path 79" d="M173.87,231.1l.431,3.243,14.06,1.994s1.146-.863,2.976-2.038c-1.488-.342-8.481-1.86-12.141-2.976-1.354-.417-2.247-.774-2.276-1.012s.089-.283.312-.461C175.15,230.639,173.87,231.1,173.87,231.1Z" transform="translate(9.83 -17.483)" opacity="0.1"/>
    <path id="Path_80" data-name="Path 80" d="M164.042,253.56s15.934,12.1,25.814,14.045c0,0,13.9,4.106,19.342,8.927l5.951-22.942-3.645-2.514s-4.359,2.693-8.109,1.8-7.9-1.488-7.9-1.488a61.094,61.094,0,0,0-10.1-2.767c-2.678-.223-1.592-3.7,1.086-5.549a5.818,5.818,0,0,1,1.116-.625,3.452,3.452,0,0,0,4.463,1.012,10.19,10.19,0,0,0,2.619-2.44h0a33.97,33.97,0,0,0,2.976-4.463s-8.317-1.785-12.453-3.065c-1.354-.417-2.247-.774-2.276-1.012-.119-.952,7.439-3.958,7.439-3.958s-6.457-3.124-9.076-.848c0,0,1.7,1.265.327,2.514s-17.854,13.941-17.854,13.941S155.621,248.13,164.042,253.56Z" transform="translate(3.173 -18.95)" fill="#444053"/>
    <path id="Path_81" data-name="Path 81" d="M172,239.408l8.823,1.265a5.818,5.818,0,0,1,1.116-.625,3.452,3.452,0,0,0,4.463,1.012,10.191,10.191,0,0,0,2.618-2.44h0a34.867,34.867,0,0,0,2.41-3.764s-8.317-1.785-12.453-3.065Z" transform="translate(8.918 -16.536)" opacity="0.1"/>
    <path id="Path_82" data-name="Path 82" d="M172.34,238.932l9.388,1.354a3.452,3.452,0,0,0,4.463,1.012c2.693-1.488,5.594-6.933,5.594-6.933s-8.317-1.785-12.453-3.065Z" transform="translate(9.084 -16.775)" fill="#444053"/>
    <path id="Path_83" data-name="Path 83" d="M294.957,330,279.32,341.828s7.082,3.66,13.673,7.9c5.758-3.9,11.188-7.439,15.31-10.727C302.813,337.008,294.957,330,294.957,330Z" transform="translate(61.269 31.371)" opacity="0.1"/>
    <path id="Path_84" data-name="Path 84" d="M232.426,390.28a52.987,52.987,0,0,0,11.456-2.738s2.886-.625,7.171-2.053c-.134-1.488-.223-3.184-.238-5.1a104.286,104.286,0,0,0-2.142-16.366l-15.845,2.871-.417,17.72A11.813,11.813,0,0,0,232.426,390.28Z" transform="translate(38.222 47.967)" opacity="0.1"/>
    <path id="Path_85" data-name="Path 85" d="M216.427,357.262c3.184,4.716,11.9,24.772,11.9,24.772a85.3,85.3,0,0,0,6.636,10.221c3.467,4.359,5.862,14.164,8.5,22s-.774,6.368-.4,10.415,15.265-1.19,15.265-1.19,30.426-6.7,39.725-25.293,46.435-35.44,53.948-45.9-2.128-6.145-1.756-11.813-3.913-10.415-3.913-10.415-14.015-3.958-16.292-6.71-13.465-9.641-13.465-9.641-10.549-4.568-11.9-6.16-13.852-6.532-17.675-7.439-7.573-6.4-7.573-6.4-2.366.312-5.862-3.08-18.166-6.308-18.166-6.308c-25.04,18.449-42.343,15.875-42.343,15.875l-.4,3.481C199.332,321.034,213.243,352.546,216.427,357.262Z" transform="translate(25.982 9.093)" fill="#444053"/>
    <path id="Path_86" data-name="Path 86" d="M210.79,303.627s21.648,7.127,42.76-19.237c-25.055,18.36-42.358,15.786-42.358,15.786Z" transform="translate(27.84 9.123)" opacity="0.1"/>
    <path id="Path_87" data-name="Path 87" d="M235.83,305.591S264.9,347.563,266.7,349.1,237.362,305.071,235.83,305.591Z" transform="translate(40.055 19.463)" opacity="0.1"/>
    <path id="Path_88" data-name="Path 88" d="M226.8,303.43s20.13,31.244,19.728,35.469C246.528,338.9,227.1,308.86,226.8,303.43Z" transform="translate(35.65 18.41)" opacity="0.1"/>
    <path id="Path_89" data-name="Path 89" d="M219.535,309.2s3.72,17.482-1.875,27.391Z" transform="translate(31.191 21.225)" opacity="0.1"/>
    <path id="Path_90" data-name="Path 90" d="M214.354,309.88s-.238,15.131-1.934,18.241Z" transform="translate(28.635 21.557)" opacity="0.1"/>
    <path id="Path_91" data-name="Path 91" d="M196.46,213.7,223.2,224.174l-9.79,1.28Z" transform="translate(95.835 104.242)" opacity="0.1"/>
    <path id="Path_92" data-name="Path 92" d="M213.294,225.529c1.339.893,2.455,2.306,4.047,2.514a6.367,6.367,0,0,0,3.288-.8c2.663-1.16,5.669-2.053,8.436-1.146,3.928,1.294,6.085,5.817,10,7.156a7.127,7.127,0,0,0,3.749.208,7.261,7.261,0,0,0,2.113-.863,6.8,6.8,0,0,0,2.976-4.225,8.748,8.748,0,0,0-2.976-8.242,18.255,18.255,0,0,0-8.317-3.779c-7.856-1.741-16.024-1.161-24.043-.551a3.5,3.5,0,0,0-1.875.491c-1.22.908-3.3,5.475-2.871,7.022C208.414,225.321,213.071,223.833,213.294,225.529Z" transform="translate(26.362 -24.633)" opacity="0.1"/>
    <path id="Path_93" data-name="Path 93" d="M213.244,225.112c1.339.878,2.44,2.306,4.047,2.514a6.293,6.293,0,0,0,3.273-.818c2.663-1.16,5.683-2.053,8.436-1.146,3.928,1.309,6.085,5.832,10,7.156a6.992,6.992,0,0,0,3.749.208,6.843,6.843,0,0,0,2.113-.848,6.963,6.963,0,0,0,3.065-4.225,8.793,8.793,0,0,0-3.05-8.257,18.314,18.314,0,0,0-8.317-3.764c-7.856-1.756-16.009-1.16-24.043-.565a3.54,3.54,0,0,0-1.875.506c-1.205.893-3.3,5.475-2.871,7.022C208.364,224.963,213.021,223.386,213.244,225.112Z" transform="translate(26.338 -24.84)" fill="#3f3d56"/>
    <path id="Path_94" data-name="Path 94" d="M281,236.289l2.559,10.34,3.318-2.009,18.032-10.876s13.658-.506,14.714-11.486-15.176-.1-16.039.729-2.827,2.306-2.827,2.306l-16.783,9.373Z" transform="translate(62.089 -23.564)" fill="#efb7b9"/>
    <path id="Path_95" data-name="Path 95" d="M281,230.627l2.559,10.34,3.318-2.009c-.729-4.672-1.875-8.927-2.976-9.968Z" transform="translate(62.089 -17.902)" opacity="0.1"/>
    <path id="Path_96" data-name="Path 96" d="M221.18,292.023l3.675,21.573,21.752-4.508c-.521-1.651-6.963-22.5-2.306-27.629,4.88-5.341,2.976-20.413,2.976-20.413s-8.436-9.7-10.147-12.051-12.661-4.2-12.661-4.2a8.793,8.793,0,0,1-.789-3.08,12.383,12.383,0,0,0-.833,2.306c0,3.928,1.592,6.636,5.8,8.614.372.178.759.342,1.175.506.655.268,1.384.521,2.157.759l.357.1c7.008,2.083,8.525,6.279,8.525,6.279a16.053,16.053,0,0,1,3.184,11.307C243.363,278.216,221.18,292.023,221.18,292.023Z" transform="translate(32.908 -11.692)" opacity="0.1"/>
    <path id="Path_97" data-name="Path 97" d="M222,298.118l3.675,21.558,24.594-5.118s-.744-8.138-2.455-11.441-1.369-16.2-1.369-16.2c10.415-11.218,4.94-20.338,4.94-20.338s30.6-4.969,31.125-5.951,10.727-6.427,10.727-6.427,11.084-2.842,12.587-4.463a13.4,13.4,0,0,1,1.815-1.651,4.77,4.77,0,0,1,.6-.387l.818,7.067h.372a10.073,10.073,0,0,0,4.821-1.9c2.529-1.934-.67-23.135-3.124-23.879a2.827,2.827,0,0,0-1.413,0,15.979,15.979,0,0,0-5.282,2.857l-.431.342-.149.134s-13.852,5.43-16.619,7.93-24.311,5.669-24.311,5.669-9.656,2.291-10.906.908-15.994-3.645-17.229-1.488-4.657,1.77-4.657,1.77c-2.425-2.8-4.106-1.711-5.133-.1a11.234,11.234,0,0,0-1.309,3.11c0,4.285,1.889,7.1,6.978,9.12.774.3,1.607.6,2.514.863,7.022,2.083,8.525,6.279,8.525,6.279a16.024,16.024,0,0,1,3.2,11.307C244.228,284.311,222,298.118,222,298.118Z" transform="translate(33.308 -17.951)" fill="#444053"/>
    <path id="Path_98" data-name="Path 98" d="M282.863,229a2.29,2.29,0,0,1,.789.089c2.455.744,5.639,21.96,3.109,23.894a9.968,9.968,0,0,1-4.3,1.86h-.372l-.818-7.067a4.776,4.776,0,0,0-.6.387v-.3a18.36,18.36,0,0,0-3.5-15.7Z" transform="translate(60.225 -17.899)" opacity="0.1"/>
    <path id="Path_99" data-name="Path 99" d="M281.149,247.8l.818,7.067a9.894,9.894,0,0,0,5.252-2.009c2.529-1.934-.67-23.135-3.124-23.879-1.934-.6-5.341,1.815-6.7,2.842A18.389,18.389,0,0,1,281.149,247.8Z" transform="translate(60.333 -17.952)" fill="#444053"/>
    <path id="Path_100" data-name="Path 100" d="M230.148,253.26l3.526-3.3-9.195-8.927a11.233,11.233,0,0,0-1.309,3.11C223.2,248.424,225.06,251.236,230.148,253.26Z" transform="translate(33.879 -12.029)" fill="#444053"/>
    <path id="Path_101" data-name="Path 101" d="M213.072,221.494c1.339.878,2.44,2.306,4.047,2.514a6.294,6.294,0,0,0,3.273-.818c2.663-1.16,5.683-2.053,8.436-1.146,3.928,1.309,6.085,5.832,10,7.156a6.993,6.993,0,0,0,3.749.208,6.738,6.738,0,0,0,5.341-6.963,7.052,7.052,0,0,1,0,3.154,6.9,6.9,0,0,1-3.065,4.225,6.7,6.7,0,0,1-2.113.848,6.934,6.934,0,0,1-3.734-.208c-3.928-1.324-6.085-5.847-10.013-7.156-2.752-.908-5.773,0-8.436,1.146a6.293,6.293,0,0,1-3.273.818c-1.592-.208-2.708-1.637-4.047-2.514-.223-1.726-4.88-.149-5.46-2.217a2.47,2.47,0,0,1,0-.952C208.7,221.182,212.849,219.873,213.072,221.494Z" transform="translate(26.347 -22.488)" opacity="0.1"/>
    <path id="Path_102" data-name="Path 102" d="M222.234,253.6s-1.949,5.475.536,7.32c0,0-2.723-7.246-4.3-7.082" transform="translate(31.586 -5.897)" opacity="0.1"/>
    <path id="Path_103" data-name="Path 103" d="M304.674,217.76s-12.572,10.876-3.481,12.632S304.674,217.76,304.674,217.76Z" transform="translate(70.329 -23.38)" fill="#efb7b9"/>
    <g id="Group_6" data-name="Group 6" transform="translate(644.222 241.112)" opacity="0.1">
      <path id="Path_104" data-name="Path 104" d="M1061.325,420.25H670.031V766.82c0,79.241-60.628,133.9-134.825,133.9a148.979,148.979,0,0,1-51.805-9.091,145.121,145.121,0,0,0,71.147,18.017c74.2,0,134.825-54.632,134.825-133.9V429.177h371.952Z" transform="translate(-483.4 -165.715)"/>
      <path id="Path_105" data-name="Path 105" d="M558.42,314.714h19.342V220.967H949.744V212.04H558.42Z" transform="translate(-371.819 -137.679)"/>
      <path id="Path_106" data-name="Path 106" d="M989.021,249.17V850.245c0,79.241-60.628,133.9-134.825,133.9a148.972,148.972,0,0,1-51.805-9.09,145.119,145.119,0,0,0,71.147,18.017c74.2,0,134.825-54.632,134.825-133.9v-610Z" transform="translate(-327.794 -249.17)"/>
    </g>
    <path id="Path_107" data-name="Path 107" d="M631.674,174.962c9.6,19.833,25.293,42.388,43.042,33.773s31.006-45.155,21.41-65.017-31.824-28.893-49.618-20.279S622.062,155.159,631.674,174.962Z" transform="translate(231.003 -70.982)" fill="#fb6464"/>
    <path id="Path_108" data-name="Path 108" d="M658.742,192.428s3.467-.58,2.142-3.437a5.3,5.3,0,0,0-.417-.729,9.18,9.18,0,0,1-1.324-3.69,13.388,13.388,0,0,1,.164-4.6l-9.448-.625s3.675,3.124,3.243,4.761a.937.937,0,0,1-.431.565,1.488,1.488,0,0,1-.625.268l-.714.208c-2.485.878-1.488,2.128-1.488,2.128C650.172,191.357,658.742,192.428,658.742,192.428Z" transform="translate(241.919 -42.117)" fill="#fb6464"/>
    <path id="Path_109" data-name="Path 109" d="M651.68,183.115l6.665.922a8.292,8.292,0,0,1-.194-1.027c-1.7-.074-4.359-.3-6.04-.461a.937.937,0,0,1-.431.565Z" transform="translate(242.91 -40.556)" fill="#444053"/>
    <path id="Path_110" data-name="Path 110" d="M658.742,190.525s3.467-.58,2.142-3.437a10.713,10.713,0,0,1-4.091.164,9.06,9.06,0,0,1-5.46-4c-2.485.878-1.488,2.128-1.488,2.128C650.172,189.454,658.742,190.525,658.742,190.525Z" transform="translate(241.919 -40.215)" fill="#fb6464"/>
    <path id="Path_111" data-name="Path 111" d="M658.742,190.525s3.467-.58,2.142-3.437a10.713,10.713,0,0,1-4.091.164,9.06,9.06,0,0,1-5.46-4c-2.485.878-1.488,2.128-1.488,2.128C650.172,189.454,658.742,190.525,658.742,190.525Z" transform="translate(241.919 -40.215)" opacity="0.1"/>
    <path id="Path_112" data-name="Path 112" d="M652.37,123.8s10.563-1.28,13.554,5.758a8.5,8.5,0,0,0-3.794.223,5.387,5.387,0,0,1-2.47.476,14.165,14.165,0,0,0-7.29-6.457Z" transform="translate(243.247 -69.259)" fill="#fff" opacity="0.1"/>
    <path id="Path_113" data-name="Path 113" d="M661.335,224.472a3.729,3.729,0,0,0,.6-.6,8.051,8.051,0,0,1,2.262-1.785,7.928,7.928,0,0,1,.937-.476,13.79,13.79,0,0,1,2.976-.893,11.9,11.9,0,0,1,1.488-.164l-1.339-6.4v-.089l-.58-2.782a20.2,20.2,0,0,1-1.339,2.336c-.684,1.042-1.488,2.038-2.38,2.053a1.057,1.057,0,0,1-.67-.253,2.023,2.023,0,0,1-.417-.536c-.149-.238-.268-.446-.4-.64-1.488-2.142-2.425-.8-2.425-.8-1.7.61-2.4,2.633-2.648,4.672a2.891,2.891,0,0,1-.089.878,23.383,23.383,0,0,0,.149,4.329S658.984,226.525,661.335,224.472Z" transform="translate(245.634 -26.536)" fill="#fb6464"/>
    <path id="Path_114" data-name="Path 114" d="M662.273,220.735a7.929,7.929,0,0,1,.937-.476c-.327-1.384-.729-3.467-1.012-5.1v-.342a1.016,1.016,0,0,0-.089-.491,1.056,1.056,0,0,1-.669-.253l.149,1v.4Z" transform="translate(247.671 -25.18)" fill="#444053"/>
    <path id="Path_115" data-name="Path 115" d="M661.335,223.9a10.725,10.725,0,0,1-1.25-3.9,8.447,8.447,0,0,1,.283-2.47c.074-.238.134-.476.223-.7a7.248,7.248,0,0,1,1.875-3.154c-1.488-2.142-2.425-.8-2.425-.8-1.7.61-2.4,2.633-2.648,4.672a2.891,2.891,0,0,1-.089.878,23.372,23.372,0,0,0,.149,4.329S658.984,225.953,661.335,223.9Z" transform="translate(245.634 -25.965)" fill="#fb6464"/>
    <path id="Path_116" data-name="Path 116" d="M661.335,223.9a10.725,10.725,0,0,1-1.25-3.9,8.447,8.447,0,0,1,.283-2.47c.074-.238.134-.476.223-.7a7.248,7.248,0,0,1,1.875-3.154c-1.488-2.142-2.425-.8-2.425-.8-1.7.61-2.4,2.633-2.648,4.672a2.891,2.891,0,0,1-.089.878,23.372,23.372,0,0,0,.149,4.329S658.984,225.953,661.335,223.9Z" transform="translate(245.634 -25.965)" opacity="0.1"/>
    <path id="Path_117" data-name="Path 117" d="M623.116,201.031c8.034,5.163,17.3,10.162,26.111,12.81,6.77,2.053,13.256,2.708,18.687.982a17.125,17.125,0,0,0,6.338-3.66,18.076,18.076,0,0,0,3.2-3.809c6.293-9.834,6.174-27.123,1.19-42.09-3.482-10.415-9.254-19.639-16.857-24.519-18.538-11.9-42.224-8.034-52.906,8.614S604.578,189.128,623.116,201.031Z" transform="translate(219.505 -64.318)" fill="#fb6464"/>
    <path id="Path_118" data-name="Path 118" d="M623.116,201.031c8.034,5.163,17.3,10.162,26.111,12.81,6.77,2.053,13.256,2.708,18.687.982a17.125,17.125,0,0,0,6.338-3.66,18.076,18.076,0,0,0,3.2-3.809c6.293-9.834,6.174-27.123,1.19-42.09-3.482-10.415-9.254-19.639-16.857-24.519-18.538-11.9-42.224-8.034-52.906,8.614S604.578,189.128,623.116,201.031Z" transform="translate(219.505 -64.318)" opacity="0.1"/>
    <path id="Path_119" data-name="Path 119" d="M649.3,196.064c2.366,3.3,10.206-.238,10.206-.238s2.663-2.291,0-4.032a6.35,6.35,0,0,0-.729-.417,8.3,8.3,0,0,1-2.366-1.681c-.238-.238-.476-.491-.7-.759a13.933,13.933,0,0,1-1.666-2.633,11.04,11.04,0,0,1-.58-1.384l-8.391,4.463a19.037,19.037,0,0,1,2.633.64c1.205.387,2.4.952,2.619,1.726a.938.938,0,0,1,0,.714,1.771,1.771,0,0,1-.4.55,7.286,7.286,0,0,0-.491.55C647.733,195.543,649.3,196.064,649.3,196.064Z" transform="translate(239.686 -39.4)" fill="#fb6464"/>
    <path id="Path_120" data-name="Path 120" d="M648.58,191.137l6.145-2.708c-.238-.238-.476-.491-.7-.759-1.488.8-3.853,2.009-5.386,2.752A.937.937,0,0,1,648.58,191.137Z" transform="translate(241.398 -38.058)" fill="#444053"/>
    <path id="Path_121" data-name="Path 121" d="M648.13,193.81c2.366,3.3,10.206-.238,10.206-.238s2.663-2.291,0-4.032a10.282,10.282,0,0,1-3.407,2.261,9.06,9.06,0,0,1-6.725-.55C646.568,193.289,648.13,193.81,648.13,193.81Z" transform="translate(240.851 -37.146)" fill="#fb6464"/>
    <path id="Path_122" data-name="Path 122" d="M648.13,193.81c2.366,3.3,10.206-.238,10.206-.238s2.663-2.291,0-4.032a10.282,10.282,0,0,1-3.407,2.261,9.06,9.06,0,0,1-6.725-.55C646.568,193.289,648.13,193.81,648.13,193.81Z" transform="translate(240.851 -37.146)" opacity="0.1"/>
    <path id="Path_123" data-name="Path 123" d="M618.28,140.33s8.347-6.591,14.566-2.157a8.571,8.571,0,0,0-3.11,2.172,5.4,5.4,0,0,1-1.875,1.7A14.179,14.179,0,0,0,618.28,140.33Z" transform="translate(226.617 -62.952)" fill="#fff" opacity="0.1"/>
    <g id="Group_7" data-name="Group 7" transform="translate(922.192 137.516)" opacity="0.1">
      <path id="Path_124" data-name="Path 124" d="M679.633,188.809,677.7,179.54a17.84,17.84,0,0,1-1.339,2.336,16.753,16.753,0,0,0,1.785,7.112,10.415,10.415,0,0,1,1.488-.179Z" transform="translate(-667.243 -179.54)"/>
      <path id="Path_125" data-name="Path 125" d="M674.35,192.737a4.47,4.47,0,0,0,.6-.6,8.317,8.317,0,0,1,2.261-1.8,7.93,7.93,0,0,1,.938-.476,12.753,12.753,0,0,1,2.976-.878,10.417,10.417,0,0,1,1.488-.179l-1.934-9.269a17.836,17.836,0,0,1-1.339,2.336c-.684,1.041-1.562,2.053-2.38,2.068a1.086,1.086,0,0,1-.655-.268,1.829,1.829,0,0,1-.461-.476c-.134-.238-.268-.446-.387-.64-1.488-2.142-2.44-.789-2.44-.789-3.824,1.384-2.589,9.879-2.589,9.879S671.955,194.775,674.35,192.737Z" transform="translate(-670.232 -179.54)"/>
      <path id="Path_126" data-name="Path 126" d="M675.213,189a7.924,7.924,0,0,1,.937-.476c-.387-1.622-.863-4.255-1.175-5.951a1.085,1.085,0,0,1-.655-.268Z" transform="translate(-668.238 -178.194)"/>
      <path id="Path_127" data-name="Path 127" d="M674.336,192.163a10.905,10.905,0,0,1-1.25-3.913,9.136,9.136,0,0,1,2.4-6.323c-1.488-2.142-2.44-.789-2.44-.789-3.824,1.384-2.589,9.879-2.589,9.879S671.94,194.2,674.336,192.163Z" transform="translate(-670.217 -178.966)"/>
      <path id="Path_128" data-name="Path 128" d="M674.336,192.163a10.905,10.905,0,0,1-1.25-3.913,9.136,9.136,0,0,1,2.4-6.323c-1.488-2.142-2.44-.789-2.44-.789-3.824,1.384-2.589,9.879-2.589,9.879S671.94,194.2,674.336,192.163Z" transform="translate(-670.217 -178.966)" opacity="0.1"/>
    </g>
    <path id="Path_129" data-name="Path 129" d="M673.52,191.492a3.738,3.738,0,0,0,.6-.6,8.315,8.315,0,0,1,2.261-1.785,7.937,7.937,0,0,1,.937-.476,12.752,12.752,0,0,1,2.976-.878,10.412,10.412,0,0,1,1.488-.179l-1.934-9.269a18.944,18.944,0,0,1-1.339,2.336c-.685,1.041-1.488,2.053-2.38,2.053a.981.981,0,0,1-.655-.253,2.057,2.057,0,0,1-.432-.536c-.134-.238-.268-.446-.387-.64-1.488-2.142-2.44-.8-2.44-.8-3.824,1.4-2.589,9.894-2.589,9.894S671.125,193.545,673.52,191.492Z" transform="translate(251.57 -42.624)" fill="#fb6464"/>
    <path id="Path_130" data-name="Path 130" d="M674.393,187.76a7.934,7.934,0,0,1,.937-.476c-.387-1.622-.863-4.255-1.175-5.951a.982.982,0,0,1-.655-.253Z" transform="translate(253.554 -41.273)" fill="#444053"/>
    <path id="Path_131" data-name="Path 131" d="M673.491,190.92a10.726,10.726,0,0,1-1.25-3.9,9.135,9.135,0,0,1,2.47-6.323c-1.488-2.142-2.44-.8-2.44-.8-3.824,1.4-2.589,9.894-2.589,9.894S671.1,192.973,673.491,190.92Z" transform="translate(251.599 -42.053)" fill="#fb6464"/>
    <path id="Path_132" data-name="Path 132" d="M673.491,190.92a10.726,10.726,0,0,1-1.25-3.9,9.135,9.135,0,0,1,2.47-6.323c-1.488-2.142-2.44-.8-2.44-.8-3.824,1.4-2.589,9.894-2.589,9.894S671.1,192.973,673.491,190.92Z" transform="translate(251.599 -42.053)" opacity="0.1"/>
    <g id="Group_8" data-name="Group 8" transform="translate(913.565 119.409)" opacity="0.1">
      <path id="Path_133" data-name="Path 133" d="M667.39,169.8a16.977,16.977,0,0,0,6.874,2.544,12.492,12.492,0,0,1,.684-1.339l-8.748-3.63a17.868,17.868,0,0,1,1.19,2.425Z" transform="translate(-663.572 -167.37)"/>
      <path id="Path_134" data-name="Path 134" d="M671.22,182.625s3.467.58,3.139-2.559a4.8,4.8,0,0,0-.164-.833,8.231,8.231,0,0,1-.208-2.871,8.008,8.008,0,0,1,.149-1.041,14.333,14.333,0,0,1,1.636-4.3l-8.748-3.63a17.857,17.857,0,0,1,1.22,2.4c.476,1.16.8,2.455.357,3.124a1.027,1.027,0,0,1-.6.4,1.577,1.577,0,0,1-.67,0h-.759c-2.619,0-2.023,1.488-2.023,1.488C663.468,178.861,671.22,182.625,671.22,182.625Z" transform="translate(-664.426 -167.36)"/>
      <path id="Path_135" data-name="Path 135" d="M666.8,171.536l5.951,2.976a7.956,7.956,0,0,1,.149-1.041c-1.577-.61-4.017-1.7-5.564-2.381A1.027,1.027,0,0,1,666.8,171.536Z" transform="translate(-663.279 -165.555)"/>
      <path id="Path_136" data-name="Path 136" d="M671.228,180.669s3.467.58,3.139-2.559a10.713,10.713,0,0,1-3.928-1.161,9.165,9.165,0,0,1-3.883-5.55c-2.619,0-2.023,1.488-2.023,1.488C663.476,176.9,671.228,180.669,671.228,180.669Z" transform="translate(-664.434 -165.404)"/>
      <path id="Path_137" data-name="Path 137" d="M671.228,180.669s3.467.58,3.139-2.559a10.713,10.713,0,0,1-3.928-1.161,9.165,9.165,0,0,1-3.883-5.55c-2.619,0-2.023,1.488-2.023,1.488C663.476,176.9,671.228,180.669,671.228,180.669Z" transform="translate(-664.434 -165.404)" opacity="0.1"/>
    </g>
    <path id="Path_138" data-name="Path 138" d="M670.8,182s3.467.58,3.139-2.544a4.571,4.571,0,0,0-.164-.833,8.316,8.316,0,0,1-.208-2.886,7.742,7.742,0,0,1,.149-1.027,12.155,12.155,0,0,1,.952-2.976,12.491,12.491,0,0,1,.684-1.339L666.6,166.75a17.875,17.875,0,0,1,1.19,2.425c.476,1.175.8,2.455.357,3.139a1.072,1.072,0,0,1-.6.387,1.828,1.828,0,0,1-.669,0h-.759c-2.619,0-2.023,1.488-2.023,1.488C663.074,178.251,670.8,182,670.8,182Z" transform="translate(248.923 -48.263)" fill="#fb6464"/>
    <path id="Path_139" data-name="Path 139" d="M666.39,170.911l5.951,2.976a7.763,7.763,0,0,1,.149-1.027c-1.577-.61-4.017-1.7-5.565-2.381a1.072,1.072,0,0,1-.536.431Z" transform="translate(250.086 -46.444)" fill="#444053"/>
    <path id="Path_140" data-name="Path 140" d="M670.8,180.034s3.467.58,3.139-2.544a11.068,11.068,0,0,1-3.928-1.175,9.135,9.135,0,0,1-3.883-5.535c-2.619,0-2.023,1.488-2.023,1.488C663.074,176.285,670.8,180.034,670.8,180.034Z" transform="translate(248.923 -46.298)" fill="#fb6464"/>
    <path id="Path_141" data-name="Path 141" d="M670.8,180.034s3.467.58,3.139-2.544a11.068,11.068,0,0,1-3.928-1.175,9.135,9.135,0,0,1-3.883-5.535c-2.619,0-2.023,1.488-2.023,1.488C663.074,176.285,670.8,180.034,670.8,180.034Z" transform="translate(248.923 -46.298)" opacity="0.1"/>
    <path id="Path_142" data-name="Path 142" d="M646.085,208.917a18.47,18.47,0,0,1,1.354-2.321c.714-1.041,1.592-2.038,2.4-2.038a.937.937,0,0,1,.67.268,1.934,1.934,0,0,1,.417.521c.134.253.268.461.387.655,1.488,2.172,2.44.818,2.44.818,3.839-1.339,2.678-9.864,2.678-9.864s-1.488-3.2-3.868-1.175a5.464,5.464,0,0,0-.61.58,9.508,9.508,0,0,1-3.214,2.247,13.392,13.392,0,0,1-2.976.848,9.46,9.46,0,0,1-1.488.164Z" transform="translate(239.296 -34.43)" fill="#fb6464"/>
    <path id="Path_143" data-name="Path 143" d="M648.361,203.562a.938.938,0,0,1,.67.268l-.833-6.68a7.807,7.807,0,0,1-.937.461C647.647,199.248,648.093,201.881,648.361,203.562Z" transform="translate(240.754 -33.434)" fill="#444053"/>
    <path id="Path_144" data-name="Path 144" d="M649,206c1.488,2.172,2.44.818,2.44.818,3.839-1.339,2.678-9.864,2.678-9.864s-1.488-3.2-3.868-1.175a10.415,10.415,0,0,1,1.19,3.913A9.016,9.016,0,0,1,649,206Z" transform="translate(241.603 -34.43)" fill="#fb6464"/>
    <path id="Path_145" data-name="Path 145" d="M649,206c1.488,2.172,2.44.818,2.44.818,3.839-1.339,2.678-9.864,2.678-9.864s-1.488-3.2-3.868-1.175a10.415,10.415,0,0,1,1.19,3.913A9.016,9.016,0,0,1,649,206Z" transform="translate(241.603 -34.43)" opacity="0.1"/>
    <path id="Path_146" data-name="Path 146" d="M647.692,224.249a29.085,29.085,0,0,0,4.463-14.878c.714-1.041,1.592-2.038,2.4-2.038a.937.937,0,0,1,.67.268,1.933,1.933,0,0,1,.417.521c.134.253.268.461.387.655,1.488,2.172,2.44.818,2.44.818,3.839-1.339,2.678-9.864,2.678-9.864s-1.488-3.2-3.868-1.175a5.467,5.467,0,0,0-.61.58,9.507,9.507,0,0,1-3.214,2.247,13.389,13.389,0,0,1-2.976.848,19.99,19.99,0,0,0-2.752-4.136,33.937,33.937,0,0,0-13.242-8.733C636.563,202.557,640.446,216.453,647.692,224.249Z" transform="translate(234.52 -37.234)" opacity="0.1"/>
    <path id="Path_147" data-name="Path 147" d="M657.39,245.392a25.828,25.828,0,0,0,3.2-.714,28.016,28.016,0,0,0,2.842-.982l.61-.253c.789-.342,1.592-.714,2.4-1.131s1.205-.625,1.815-.967c11.322-6.531,22.317-19.669,27.227-33a43.311,43.311,0,0,0,2.663-11.337,30.494,30.494,0,0,0-.089-6.174,43.579,43.579,0,0,0-5.534-16.678c-.327-.55-.64-1.071-.982-1.577-7.439-11.486-19.952-18.419-33.253-17.021,2.886,8.347,6.993,15.458,12.78,19.163.476,1.175.8,2.455.357,3.139a1.071,1.071,0,0,1-.6.387,1.83,1.83,0,0,1-.67,0H669.4c-2.619,0-2.023,1.488-2.023,1.488-1.026,3.943,6.7,7.707,6.7,7.707s3.467.58,3.139-2.544a4.566,4.566,0,0,0-.164-.833,8.315,8.315,0,0,1-.208-2.886,7.763,7.763,0,0,1,.149-1.027,12.156,12.156,0,0,1,.952-2.976,19.116,19.116,0,0,0,4.969,0,26.393,26.393,0,0,0,6.784-1.845c-.312.491-.6.982-.863,1.488a29.19,29.19,0,0,0-4.464,14.878c-.684,1.041-1.488,2.053-2.38,2.053a.982.982,0,0,1-.655-.253,2.052,2.052,0,0,1-.432-.536c-.134-.238-.268-.446-.387-.64-1.488-2.142-2.44-.8-2.44-.8-3.824,1.4-2.589,9.894-2.589,9.894s1.488,3.184,3.883,1.131a3.734,3.734,0,0,0,.6-.6,8.316,8.316,0,0,1,2.261-1.785,7.941,7.941,0,0,1,.938-.476,12.752,12.752,0,0,1,2.976-.878,18.955,18.955,0,0,0,2.782,4.121l.6.64-.208.193a117.534,117.534,0,0,0-13.2,14.045,52.721,52.721,0,0,0-3.392,4.731q-1.1,1.681-2.053,3.348a29.266,29.266,0,0,0-4.374,14.878c-.684,1.041-1.488,2.038-2.381,2.053a1.056,1.056,0,0,1-.669-.253,2.026,2.026,0,0,1-.417-.536c-.149-.238-.268-.446-.4-.64-1.488-2.142-2.425-.8-2.425-.8C658.3,241.331,657.643,243.354,657.39,245.392Z" transform="translate(245.696 -53.81)" opacity="0.1"/>
    <g id="Group_9" data-name="Group 9" transform="translate(867.741 101.005)" opacity="0.1">
      <path id="Path_148" data-name="Path 148" d="M670.36,168.636a5.356,5.356,0,0,0,2.5.342,8.674,8.674,0,0,1,3.66,1.012c-.565-7.618-10.98-9.82-10.98-9.82a14.134,14.134,0,0,1,4.82,8.466Z" transform="translate(-618.069 -152.478)"/>
      <path id="Path_149" data-name="Path 149" d="M633.97,198.89c.193,1.488.4,3.109.655,4.687,6.77,2.053,13.256,2.708,18.687.982,1.205.387,2.4.952,2.619,1.726a.938.938,0,0,1,0,.714,1.771,1.771,0,0,1-.4.55,7.353,7.353,0,0,0-.491.551c-1.666,2.038-.1,2.559-.1,2.559,2.366,3.3,10.206-.238,10.206-.238s2.663-2.291,0-4.032a6.366,6.366,0,0,0-.729-.417,8.3,8.3,0,0,1-2.366-1.681c-.238-.238-.476-.491-.7-.759a13.922,13.922,0,0,1-1.666-2.633,18.078,18.078,0,0,0,3.2-3.809c6.293-9.834,6.174-27.123,1.19-42.09C644.727,157.738,631.307,177.317,633.97,198.89Z" transform="translate(-633.634 -155)"/>
      <path id="Path_150" data-name="Path 150" d="M646.4,214.336a16.961,16.961,0,0,0,6.859,2.574,10.865,10.865,0,0,1,.7-1.339L645.18,212a20.608,20.608,0,0,1,1.22,2.336Z" transform="translate(-628.001 -127.195)"/>
      <path id="Path_151" data-name="Path 151" d="M650.23,227.161s3.482.6,3.139-2.544a4.466,4.466,0,0,0-.149-.833,8.344,8.344,0,0,1-.208-2.886,7.413,7.413,0,0,1,.134-1.027,13.391,13.391,0,0,1,.952-2.976,10.83,10.83,0,0,1,.7-1.339L646.034,212a20.608,20.608,0,0,1,1.19,2.41c.461,1.175.789,2.47.342,3.139a.981.981,0,0,1-.58.4,1.964,1.964,0,0,1-.684,0,6.745,6.745,0,0,0-.744,0c-2.633,0-2.038,1.488-2.038,1.488C642.508,223.411,650.23,227.161,650.23,227.161Z" transform="translate(-628.856 -127.195)"/>
      <path id="Path_152" data-name="Path 152" d="M645.82,216.141l5.951,2.976a3.886,3.886,0,0,1,.134-1.027c-1.562-.61-4.017-1.7-5.564-2.381a1,1,0,0,1-.521.431Z" transform="translate(-627.689 -125.385)"/>
      <path id="Path_153" data-name="Path 153" d="M650.231,225.224s3.467.58,3.139-2.559a10.564,10.564,0,0,1-3.928-1.16,9.075,9.075,0,0,1-3.883-5.535c-2.633,0-2.038,1.488-2.038,1.488C642.494,221.475,650.231,225.224,650.231,225.224Z" transform="translate(-628.856 -125.258)"/>
      <path id="Path_154" data-name="Path 154" d="M650.231,225.224s3.467.58,3.139-2.559a10.564,10.564,0,0,1-3.928-1.16,9.075,9.075,0,0,1-3.883-5.535c-2.633,0-2.038,1.488-2.038,1.488C642.494,221.475,650.231,225.224,650.231,225.224Z" transform="translate(-628.856 -125.258)" opacity="0.1"/>
      <path id="Path_155" data-name="Path 155" d="M670.36,168.636a5.356,5.356,0,0,0,2.5.342,8.674,8.674,0,0,1,3.66,1.012c-.565-7.618-10.98-9.82-10.98-9.82a14.134,14.134,0,0,1,4.82,8.466Z" transform="translate(-618.069 -152.478)" opacity="0.1"/>
    </g>
    <path id="Path_156" data-name="Path 156" d="M635.411,199.816c2.693,21.871,10.236,48.265,29.86,45.839s43.92-32.732,41.227-54.617-20.829-37.612-40.439-35.187S632.7,177.96,635.411,199.816Z" transform="translate(234.808 -53.7)" fill="#fb6464"/>
    <path id="Path_157" data-name="Path 157" d="M651.668,228s3.467.6,3.139-2.544a6.6,6.6,0,0,0-.149-.833,7.986,7.986,0,0,1-.223-2.886,5.906,5.906,0,0,1,.149-1.027,13.39,13.39,0,0,1,1.651-4.3l-8.748-3.645s2.47,4.151,1.488,5.564a1.026,1.026,0,0,1-.6.4,2.291,2.291,0,0,1-.67,0h-.744c-2.633,0-2.038,1.488-2.038,1.488C643.946,224.261,651.668,228,651.668,228Z" transform="translate(239.574 -25.819)" fill="#fb6464"/>
    <path id="Path_158" data-name="Path 158" d="M647.25,216.921,653.2,219.9a5.894,5.894,0,0,1,.149-1.027c-1.577-.61-4.017-1.7-5.564-2.381A1.027,1.027,0,0,1,647.25,216.921Z" transform="translate(240.749 -24)" fill="#444053"/>
    <path id="Path_159" data-name="Path 159" d="M651.656,226.034s3.467.6,3.139-2.544a10.412,10.412,0,0,1-3.928-1.175A9.015,9.015,0,0,1,647,216.78c-2.634,0-2.038,1.488-2.038,1.488C643.934,222.3,651.656,226.034,651.656,226.034Z" transform="translate(239.587 -23.858)" fill="#fb6464"/>
    <path id="Path_160" data-name="Path 160" d="M651.656,226.034s3.467.6,3.139-2.544a10.412,10.412,0,0,1-3.928-1.175A9.015,9.015,0,0,1,647,216.78c-2.634,0-2.038,1.488-2.038,1.488C643.934,222.3,651.656,226.034,651.656,226.034Z" transform="translate(239.587 -23.858)" opacity="0.1"/>
    <path id="Path_161" data-name="Path 161" d="M667,161s10.415,2.2,10.98,9.82a8.54,8.54,0,0,0-3.675-1,5.417,5.417,0,0,1-2.485-.357A14.237,14.237,0,0,0,667,161Z" transform="translate(250.383 -51.068)" fill="#fff" opacity="0.1"/>
    <path id="Path_162" data-name="Path 162" d="M653.167,218.1a6.338,6.338,0,0,1,5.639,7.8c-1.309,4.389-6.7,5.773-10.207,8.7s-5.192,7.618-5.624,12.185a29.875,29.875,0,0,0,8.585,23.626c3.154,3.11,6.963,5.49,10.072,8.644a51.45,51.45,0,0,1,8.7,13.271,31.067,31.067,0,0,1,3.853,11.159c.521,6.264-2.633,12.26-6.4,17.288s-8.272,9.581-11.188,15.146a31.825,31.825,0,0,0-1.83,24.951,3.229,3.229,0,0,0,1.056,1.666,1.175,1.175,0,0,0,1.726-.372" transform="translate(238.611 -23.214)" fill="none" stroke="#444053" stroke-miterlimit="10" stroke-width="1"/>
    <path id="Path_163" data-name="Path 163" d="M671.981,217.36a2.976,2.976,0,0,1,.134,3.779,4.6,4.6,0,0,1-3.63,1.681c-1.681,0-3.556-.521-4.94.461a4.27,4.27,0,0,0-1.488,3.229,16.471,16.471,0,0,1-.372,3.645,7.259,7.259,0,0,1-1.607,2.619,8.049,8.049,0,0,1-2.976,2.172c-2.485.967-5.356.089-7.9.893-3.348,1.056-5.148,4.672-6.16,8.034a23.135,23.135,0,0,0-.729,12.468,43.143,43.143,0,0,0,3.377,7.647,17.3,17.3,0,0,1,2.2,7.975,7.32,7.32,0,0,1-4.2,6.7" transform="translate(238.082 -23.575)" fill="none" stroke="#444053" stroke-miterlimit="10" stroke-width="1"/>
    <path id="Path_164" data-name="Path 164" d="M722.67,284.876c-4,5.326-5.52,13.837-12.066,15.131-3.377.67-6.725-1.071-9.745-2.738-7.037-3.928-14.283-7.885-22.317-9.18s-16.9.565-22.168,6.68c-3.586,4.2-5.058,9.82-8.213,14.342a29.428,29.428,0,0,1-16.663,10.95,68.187,68.187,0,0,1-20.2,1.726c-2.514-.074-5.252-.268-7.127-1.934a17.346,17.346,0,0,1-2.976-4.538c-3.229-5.416-9.611-8.391-15.9-8.793s-12.512,1.488-18.33,3.883c-2.976,1.22-5.951,2.619-9.135,2.306-4.463-.446-7.752-4.047-10.5-7.513A148.777,148.777,0,0,1,529.27,275.83" transform="translate(183.197 4.947)" fill="none" stroke="#444053" stroke-miterlimit="10" stroke-width="1"/>
    <path id="Path_165" data-name="Path 165" d="M497.933,764.922c1.592-5.788,2.633-10.876,2.633-10.876a22.764,22.764,0,0,1,2.976-11.025l.074-1.592h0l.446-11.739a39.51,39.51,0,0,0-2.723-6.264c-1.979-3.764.67-17.214.67-17.214s8.57-18.761,7.127-30.917,18.151-53.085,18.151-53.085a52.635,52.635,0,0,0-1.235-11.9,10.131,10.131,0,0,1-.134-2.5V607.6c.58-7.96,7.439-22.674,7.439-22.674l.253-28.506s-3.377-16.961,4.062-39.263c2.589-7.781,4.3-14.015,5.416-18.836.134-.551.253-1.071.357-1.577-13.39-2.589-23.686-4.7-23.686-4.7s9.09-32.479,14.61-38.014,10.415-23.418,10.415-23.418,3.645-23.046-.551-29.979-4.315-18.7-4.315-18.7-9.879-7.766-11.025-11.1-2.976-10.787-2.827-14.685,1.488-7.335,1.205-9.388,3.348-9.73,1.786-13.48a10.413,10.413,0,0,1-.536-3.586v-.1a49.845,49.845,0,0,1,1.265-9.582,27.139,27.139,0,0,1,10.266-4.984l.253-.878.655-2.276c.357-.223.7-.4,1.027-.565v-.833l.223-3.333-1.309-7.543c-2.619-13.122,14.878-14.4,14.878-14.4a9.136,9.136,0,0,1,5.088-4.121c3.541-1.1-.179,19.594-1.86,20.829-1.265.952-5.312,7.335-7.26,10.415h0l-.327.521a7.27,7.27,0,0,1,.774.863l-.833,4.463-.134.684a18.793,18.793,0,0,1,2.589,4.835s-3.318,3.362-2.827,7.29a23,23,0,0,1-1.4,8.927c.193-.193,2.529-2.529,4.731-1.86s8.376,2.782,8.376,2.782,4.627,1.012,4.166,2.009,2.976,5.654,2.976,5.654L582.872,337.3c.134-.357.283-.7.4-1.071a29.275,29.275,0,0,0,1.294-5.148,28.524,28.524,0,0,1-3.958-1.488,8.6,8.6,0,0,1-3.377-2.351,13.391,13.391,0,0,1-1.8-5.475c-.863-3.69-2.857-7.008-4.255-10.534a33.759,33.759,0,0,1-1.785-18.7,12.289,12.289,0,0,1,2.142-5.371c2.142-2.738,5.951-3.734,8.674-5.862s4.657-5.5,7.856-7.067c2.9-1.413,6.368-1.1,9.537-.446a51.032,51.032,0,0,1,17.5,7.127c1.785,1.146,3.734,2.485,5.847,2.172a7.87,7.87,0,0,0,4.464-2.976v-.164l.134-.164a22.094,22.094,0,0,1,1.592,9.448,6.275,6.275,0,0,1-.119,1.488v.521a2.141,2.141,0,0,0,0,.431h0a2.582,2.582,0,0,0,0,.67,4.808,4.808,0,0,0,1.1,1.741,8.932,8.932,0,0,1,.967,1.488,1.724,1.724,0,0,0-.149-.521,7.438,7.438,0,0,1,1.146,4,3.987,3.987,0,0,1-1.042,2.782,12.927,12.927,0,0,1-2.113,1.562,23.805,23.805,0,0,1-12.379,24.385c-.149.342-.312.7-.461,1.056a29.921,29.921,0,0,0-2.8,13.569,2.9,2.9,0,0,0,.119,1,6.517,6.517,0,0,1,.417.535h0s20.651,1,25.695-3.229,11.9,11.248,11.9,11.248,7.365,1.711,8.927.342,10.177.178,10.177.178a18.643,18.643,0,0,1,13.093-4.211,38.255,38.255,0,0,1,9.686-4.91h.238a10.7,10.7,0,0,1,4.672-.417s10.489-8,13.628-12.393,17.854-20.591,17.973-20.651l.074-.818.253-2.425a9.061,9.061,0,0,0,1.265.164c.089-.238.193-.521.327-.833a44.293,44.293,0,0,1,3.258-6.77s.119-3.08-.759-3.883.848-12.036.848-12.036,9.968-21.052,17.571-4.761c0,0,15.1,10.95,1.622,22.5,0,0-5.282,2.306-6.1,4.27-.536,1.28-2.44,4.835-3.7,7.186-.223.387-.417.744-.58,1.056l.149.134-.268,1.994-.119.774c2.41,1.488,4.017,2.976,3.571,3.972a22.858,22.858,0,0,0-1.7,5.475s-18.865,21.841-21.573,31.393c0,0-49.38,26.781-65.33,28.268l2.2,14.447s.506,8.644.178,11.709,1.25,17.095,1.25,17.095,1.964,20.591,4.181,23.552,1.324,15.235,1.324,15.235a102.8,102.8,0,0,0,2.514,17.541c2.023,7.885,0,17.452,0,17.452s7.335,18.761-11.441,5.5c0,0-9.448-.952-20.323-1.741v1.1c0,1.4,0,2.976-.119,4.463-.253,10.578-.759,25.144-1.651,36.139-1.607,19.431-9.016,57.727-9.016,57.727l-.744,19.342a25.212,25.212,0,0,1,.342,5.549,35.946,35.946,0,0,1-5.951,19.178l-2.277,12.78s-3.809,8.361-4.077,13.39a6.366,6.366,0,0,0,.1,1.235,9.044,9.044,0,0,1,.089,1.994c0,5.862-4.091,19.758-4.091,19.758s-.759,14.134-2.976,14.878c-1.83.64,2.113,8.242,3.288,10.415a3.932,3.932,0,0,0,.089-.4l.253.446a10.016,10.016,0,0,1,.521,3.6,5.148,5.148,0,0,1-2.544,4.88c-4.121,2.291-6.353,4.27-2.976,5.207,1.294.372,2.678.506,3.7.937,0-.164.134-.327.193-.476a2.262,2.262,0,0,1,1.294,2.544,10.414,10.414,0,0,1-1.488,4.746A50.781,50.781,0,0,1,602.348,756l-1.622-.238a7.935,7.935,0,0,0,.878,1.785,6.889,6.889,0,0,0,2.306,2.217,7.437,7.437,0,0,0,2.857,1.1,8.168,8.168,0,0,1,5.951,3.154c1.994,2.8,3.184,6.576-1.116,9.686l-15.339,4.642s-26.186,2.38-24.579-3.407,2.648-10.876,2.648-10.876a23.119,23.119,0,0,1,2.589-10.177,10.707,10.707,0,0,1,.982-1.488l-.922-.149s-1.4-12.974-3.854-15.533c-.565-.6-.684-1.042-.521-1.369-.238-.714.431-1.1,1.294-1.294a2.232,2.232,0,0,0,.164.506,13.544,13.544,0,0,1,2.544-.179s1.116-6.725-1.488-9.3a2.6,2.6,0,0,1-.461-2.023,11.036,11.036,0,0,1,.4-2.752l.089.164c1.622-6.085,6.68-15.652,6.68-15.652s.461-6.145-1.146-8.659,1.488-33.4,1.488-33.4,0-14.982,2.113-21.886-1.756-15.25-1.756-15.25v-.446a.324.324,0,0,0,0-.1l.342-2.351v.149c.58-3.943,1.666-11.084,2.38-14.387,1.027-4.672.848-27.257.848-27.257l-3.452-9.79L575.21,587.8l-8,21.767s-3.749,4.538-4.017,9.269v.7a12.3,12.3,0,0,1,0,1.488,13.153,13.153,0,0,1-2.5,7.811s-2.306,10.415-5.371,12.929-3.258,7.662-3.258,7.662-4.2,15.027-5.951,17.631c-1.488,2.187-1.83,8.361-1.89,10.251h0v.551s-.714,5.4-.863,9.968v1.5a16.535,16.535,0,0,0,.3,3.7s0,.134,0,.208v-.759a38.506,38.506,0,0,1,.729,9.492c-.119,5.445-1.19,11.9-4.642,15.533-5.951,6.338-9.537,5.386-9.537,5.386s2.44,8.3,5.758,10.072a1.483,1.483,0,0,1,.357.238.82.82,0,0,1,.1-.476,4,4,0,0,1,.878,3.095c.1,3.615-2.4,9.388-4.672,11.992a6.709,6.709,0,0,1-2.976,1.562l.521.357c.417.238.789.431,1.146.6a5.448,5.448,0,0,0,1.711.506,8.078,8.078,0,0,1,5.951,3.154c2.008,2.8,3.2,6.576-1.1,9.686l-15.354,4.642S496.326,770.71,497.933,764.922Z" transform="translate(167.876 3.246)" fill="url(#linear-gradient-2)"/>
    <path id="Path_166" data-name="Path 166" d="M572.338,622.061l14.878-4.657c4.166-3.124,2.976-6.888,1.086-9.7a7.766,7.766,0,0,0-5.683-3.139,7.039,7.039,0,0,1-2.767-1.1,6.623,6.623,0,0,1-2.232-2.217,10.816,10.816,0,0,1-1.488-5.728s-15.919-5.326-20.5-.789a12.127,12.127,0,0,0-2.053,2.782,23.806,23.806,0,0,0-2.455,10.3s-1.012,5.073-2.559,10.876S572.338,622.061,572.338,622.061Z" transform="translate(192.575 159.616)" fill="#2d293d"/>
    <path id="Path_167" data-name="Path 167" d="M524.327,615.327l14.878-4.657c4.166-3.124,2.976-6.889,1.086-9.686a7.707,7.707,0,0,0-5.7-3.139,5.819,5.819,0,0,1-1.651-.521,7.432,7.432,0,0,1-1.1-.6c-4.032-2.41-3.779-7.87-3.779-7.87s-15.9-5.326-20.487-.789a11.751,11.751,0,0,0-1.622,2.038,23.256,23.256,0,0,0-2.886,11.04s-1.027,5.088-2.574,10.876S524.327,615.327,524.327,615.327Z" transform="translate(169.126 156.368)" fill="#2d293d"/>
    <path id="Path_168" data-name="Path 168" d="M553.963,594.731a12.126,12.126,0,0,0-2.053,2.782h0l24.013,3.719a10.816,10.816,0,0,1-1.488-5.728S558.546,590.193,553.963,594.731Z" transform="translate(194.241 159.615)" opacity="0.1"/>
    <path id="Path_169" data-name="Path 169" d="M504.239,590.034l-.179,4.463c3.511,6.338,21.707,5.684,27.093,2.782a7.435,7.435,0,0,1-1.1-.6c-4.017-2.366-3.764-7.826-3.764-7.826s-15.9-5.326-20.487-.789A11.757,11.757,0,0,0,504.239,590.034Z" transform="translate(170.9 156.368)" opacity="0.1"/>
    <path id="Path_170" data-name="Path 170" d="M502.976,653.762a39.6,39.6,0,0,1,2.633,6.264l-.625,16.187c3.838,6.918,25.293,5.49,28.268,1.9s6.457-13.093,3.243-14.878-5.564-10.073-5.564-10.073,3.452.952,9.239-5.386,4.7-20.963,3.809-24.489.6-15.161.6-15.161.1-8.213,1.845-10.8,5.817-17.645,5.817-17.645.193-5.118,3.169-7.677,5.207-12.929,5.207-12.929a13.389,13.389,0,0,0,2.4-8.733c-.417-5.148,3.9-10.519,3.9-10.519l7.811-21.871,7.2-16.366,3.258,9.894s.149,22.585-.848,27.271-2.708,17.14-2.708,17.14,3.779,8.347,1.666,15.25-2.068,21.871-2.068,21.871-2.976,30.887-1.488,33.4,1.1,8.659,1.1,8.659-9.105,17.72-6.531,20.279,1.488,9.3,1.488,9.3-5.728-.223-3.362,2.336,3.824,15.458,3.824,15.458l24.668,3.824a51.778,51.778,0,0,0,5.951-10.236c3.571-7.439-.342-6.8-3.615-7.737s-1.1-2.976,2.886-5.222,1.949-7.93,1.949-7.93-5.564-10.281-3.481-11.025,2.842-14.878,2.842-14.878,4.731-16.649,3.883-21.2,3.868-15.25,3.868-15.25l1.934-12.855a35.484,35.484,0,0,0,5.445-24.207l.774-19.877s7.216-38.311,8.793-57.757c1-12.438,1.488-29.474,1.741-40.1.134-5.951.179-9.909.179-9.909L545.884,415.46a72.233,72.233,0,0,1-2.113,13.093c-1.086,4.835-2.753,11.069-5.267,18.851-7.231,22.317-3.972,39.263-3.972,39.263l-.283,28.507s-8.525,18.761-7.141,25.382a54.117,54.117,0,0,1,1.19,11.9s-19.029,40.93-17.645,53.085-6.933,30.932-6.933,30.932S501.072,650,502.976,653.762Z" transform="translate(170.035 73.06)" fill="#3f3d56"/>
    <path id="Path_171" data-name="Path 171" d="M548.321,506.7,521.54,502.07S536.18,518.228,548.321,506.7Z" transform="translate(179.427 115.309)" opacity="0.05"/>
    <path id="Path_172" data-name="Path 172" d="M525.428,484.47s-1.294,9.492,4.463,13.3C529.832,497.771,519.447,495.673,525.428,484.47Z" transform="translate(180.418 106.723)" opacity="0.1"/>
    <path id="Path_173" data-name="Path 173" d="M526.71,464.12s21.826,19.416,30.069,18.2S526.71,464.12,526.71,464.12Z" transform="translate(181.949 96.797)" opacity="0.1"/>
    <path id="Path_174" data-name="Path 174" d="M561.77,511.89s16.961,4.553,17.2,11.441S561.77,511.89,561.77,511.89Z" transform="translate(199.051 120.099)" opacity="0.1"/>
    <path id="Path_175" data-name="Path 175" d="M558.443,569.24s24,5.431,17.021,8.242a116.667,116.667,0,0,1-18.3,4.791S549.352,582.437,558.443,569.24Z" transform="translate(195.281 148.075)" opacity="0.05"/>
    <g id="Group_10" data-name="Group 10" transform="translate(672.291 500.511)" opacity="0.05">
      <path id="Path_176" data-name="Path 176" d="M573.093,579.312a4.76,4.76,0,0,0,2.336-3.422l.238.446s2.038,5.609-1.949,7.915l-1.294.789c-.714-.164-1.488-.3-2.217-.506C566.934,583.582,569.18,581.618,573.093,579.312Z" transform="translate(-469.893 -349.192)"/>
      <path id="Path_177" data-name="Path 177" d="M550.879,577.665c-.64-.64-.551-2.217-.074-4.226a11.382,11.382,0,0,1,1.146,5.951A4.834,4.834,0,0,0,550.879,577.665Z" transform="translate(-478.775 -350.387)"/>
      <path id="Path_178" data-name="Path 178" d="M555.977,507.85a27.5,27.5,0,0,1,1.339,7.588,30.83,30.83,0,0,0-1.666-5.252S555.769,509.278,555.977,507.85Z" transform="translate(-476.225 -382.383)"/>
      <path id="Path_179" data-name="Path 179" d="M518.979,499.917a9.6,9.6,0,0,1-.134-2.247c.238,1.488.4,2.976.506,4.226C519.247,501.241,519.083,500.586,518.979,499.917Z" transform="translate(-494.187 -387.349)"/>
      <path id="Path_180" data-name="Path 180" d="M554.539,558.333a13.231,13.231,0,0,1-.446-4.583,15.4,15.4,0,0,1,.967,5.8,5.778,5.778,0,0,0-.521-1.22Z" transform="translate(-477.004 -359.992)"/>
      <path id="Path_181" data-name="Path 181" d="M550.444,582.68a79.8,79.8,0,0,1,2.351,12.691l24.668,3.824a51.771,51.771,0,0,0,5.951-10.236c.313-.655.565-1.25.774-1.785,1.488.744,1.979,2.306-.149,6.725a51.682,51.682,0,0,1-5.951,10.251l-24.668-3.824s-1.354-12.989-3.72-15.548C548.48,583.528,549.283,582.948,550.444,582.68Z" transform="translate(-479.425 -345.88)"/>
      <path id="Path_182" data-name="Path 182" d="M574.192,624.776s-.744,14.134-2.827,14.878h0c-.937-2.38-1.488-4.627-.61-4.954,2.083-.744,2.827-14.878,2.827-14.878s4.746-16.649,3.9-21.2,3.868-15.235,3.868-15.235l1.934-12.855a35.53,35.53,0,0,0,5.445-24.222l.759-19.877s7.231-38.311,8.793-57.742c1.012-12.453,1.488-29.474,1.756-40.1,0-1.919.074-3.63.089-5.073l.714.1s0,3.958-.179,9.909c-.238,10.623-.744,27.658-1.741,40.1-1.577,19.446-8.793,57.757-8.793,57.757l-.774,19.877a35.483,35.483,0,0,1-5.445,24.207l-1.934,12.855s-4.716,10.7-3.868,15.25S574.192,624.776,574.192,624.776Z" transform="translate(-469.073 -423.52)"/>
      <path id="Path_183" data-name="Path 183" d="M531.743,591.456a24.057,24.057,0,0,0,4.3-9.6c2.44,2.381-.818,11.144-3.675,14.536s-24.415,5.014-28.268-1.9l.149-3.9C509.6,596.292,528.887,594.834,531.743,591.456Z" transform="translate(-501.372 -346.28)"/>
      <path id="Path_184" data-name="Path 184" d="M502.376,571.979a41.487,41.487,0,0,1,2.633,6.264l-.119,2.871c-.417-1.056-1.027-2.485-1.889-4.181a12.242,12.242,0,0,1-.7-5.1Z" transform="translate(-502.266 -351.173)"/>
      <path id="Path_185" data-name="Path 185" d="M522.95,584.675a38.775,38.775,0,0,1-1.83-4.954s3.452.952,9.224-5.386c4.225-4.612,4.791-13.613,4.463-19.535.893,3.526,1.979,18.136-3.809,24.489C527.19,583.44,524.423,584.452,522.95,584.675Z" transform="translate(-493.069 -359.48)"/>
      <path id="Path_186" data-name="Path 186" d="M531.208,581.166a107.544,107.544,0,0,0-.878,12.126,19.109,19.109,0,0,0-.357-1.919c-.893-3.511.6-15.161.6-15.161s.119-8.2,1.86-10.8,5.8-17.63,5.8-17.63.193-5.133,3.169-7.677,5.222-12.944,5.222-12.944a13.5,13.5,0,0,0,2.38-8.733c-.417-5.148,3.9-10.519,3.9-10.519l7.826-21.871,7.186-16.366,3.318,9.775v3.124l-2.678-7.945L561.4,490.99l-7.811,21.871s-4.315,5.371-3.9,10.519a13.39,13.39,0,0,1-2.4,8.733s-2.247,10.415-5.207,12.929-3.169,7.677-3.169,7.677-4.077,15.042-5.817,17.63S531.208,581.166,531.208,581.166Z" transform="translate(-488.89 -401.008)"/>
    </g>
    <path id="Path_187" data-name="Path 187" d="M528.975,296.794l1.25,7.543-.208,3.333-.164,2.455,8.51,1.205,1.027-1.741h0c1.9-3.139,5.817-9.522,7.052-10.415,1.637-1.279,5.252-21.975,1.815-20.829a8.927,8.927,0,0,0-4.925,4.136S526.445,283.671,528.975,296.794Z" transform="translate(182.927 6.151)" fill="#ffcdd3"/>
    <path id="Path_188" data-name="Path 188" d="M529.48,300.783l8.51,1.205,1.027-1.741h0a7.513,7.513,0,0,0-9.373-1.919Z" transform="translate(183.3 15.493)" opacity="0.1"/>
    <path id="Path_189" data-name="Path 189" d="M527.92,304.48l11.174,2.976.312-1.666.8-4.463a7.766,7.766,0,0,0-10.861-1.919l-.64,2.291Z" transform="translate(182.539 15.754)" fill="#dce6f2"/>
    <path id="Path_190" data-name="Path 190" d="M651.12,307.622l11.8,6.918,1.175-2.232c1.235-2.351,3.08-5.951,3.6-7.186.789-1.964,5.951-4.285,5.951-4.285,13.063-11.56-1.488-22.481-1.488-22.481-7.335-16.292-17.02,4.776-17.02,4.776s-1.651,11.233-.818,12.036.729,3.868.729,3.868a44.855,44.855,0,0,0-3.169,6.784A13.928,13.928,0,0,0,651.12,307.622Z" transform="translate(242.637 3.164)" fill="#ffcdd3"/>
    <path id="Path_191" data-name="Path 191" d="M651.12,296.582l11.8,6.918,1.175-2.232c-1.651-1.488-7.439-6.606-9.462-6.457a14.12,14.12,0,0,1-2.856,0C651.343,295.867,651.12,296.582,651.12,296.582Z" transform="translate(242.637 14.204)" opacity="0.1"/>
    <path id="Path_192" data-name="Path 192" d="M650.2,299.971l13.271,7.186.387-2.976.268-1.994s-7.588-7.022-9.909-6.859a12.213,12.213,0,0,1-3.526-.149l-.253,2.44Z" transform="translate(242.188 14.386)" fill="#dce6f2"/>
    <path id="Path_193" data-name="Path 193" d="M549.65,339.833s58.724,8.927,47.833,4.91c-7.573-2.8-10.415-7.781-10.876-13.227a30.842,30.842,0,0,1,2.723-13.554,58.4,58.4,0,0,1,5.683-10.415s-44.128-26.542-35.975-3.645a36.241,36.241,0,0,1,2.142,10.787,30.156,30.156,0,0,1-1.577,10.757,32.329,32.329,0,0,1-9.953,14.387Z" transform="translate(193.139 14.099)" fill="#ffcdd3"/>
    <path id="Path_194" data-name="Path 194" d="M556.334,303.859a36.241,36.241,0,0,1,2.142,10.787c4.106,3.72,8.778,3.675,14.744,3.9,4.612.179,9.656,1.488,13.39-.58a58.383,58.383,0,0,1,5.683-10.415S548.121,280.962,556.334,303.859Z" transform="translate(195.903 14.083)" opacity="0.1"/>
    <circle id="Ellipse_23" data-name="Ellipse 23" cx="24.4" cy="24.4" r="24.4" transform="translate(746.345 285.419)" fill="#ffcdd3"/>
    <path id="Path_195" data-name="Path 195" d="M549.65,330.457s58.724,8.927,47.833,4.91c-7.573-2.8-10.415-7.781-10.876-13.227-2.812-3.288-8.629-5.817-12.364-7.186a17.72,17.72,0,0,0-10.682-.58,15.054,15.054,0,0,0-3.958,1.651A32.33,32.33,0,0,1,549.65,330.457Z" transform="translate(193.139 23.475)" opacity="0.1"/>
    <path id="Path_196" data-name="Path 196" d="M527.92,303.37l11.174,2.976.312-1.666a9.968,9.968,0,0,0-10.7-4.121Z" transform="translate(182.539 16.864)" opacity="0.1"/>
    <path id="Path_197" data-name="Path 197" d="M650.2,299.171l13.271,7.186.387-2.976a99.9,99.9,0,0,0-13.39-6.561Z" transform="translate(242.188 15.186)" opacity="0.1"/>
    <path id="Path_198" data-name="Path 198" d="M530.12,428.563c22.7,4.463,55.049,10.415,60.241,9.061,4.329-1.146,18-.476,29.875.387.134-5.951.179-9.909.179-9.909L532.233,415.47a72.238,72.238,0,0,1-2.113,13.093Z" transform="translate(183.612 73.065)" opacity="0.1"/>
    <path id="Path_199" data-name="Path 199" d="M515,479.9s74.718,15.8,82.886,13.658,49.5,2.113,49.5,2.113c18.166,13.212,11.1-5.535,11.1-5.535s2.009-9.567,0-17.437a106.937,106.937,0,0,1-2.4-17.541s.878-12.274-1.264-15.235-4.017-23.552-4.017-23.552-1.488-14.015-1.19-17.08-.164-11.709-.164-11.709l-2.113-14.447c15.443-1.488,63.276-28.358,63.276-28.358,2.633-9.537,20.919-31.423,20.919-31.423a23.226,23.226,0,0,1,1.636-5.475c1.369-3.229-16.827-10.415-16.827-10.415s-14.387,16.277-17.422,20.666-13.212,12.423-13.212,12.423a10.043,10.043,0,0,0-4.463.417h-.238a36.524,36.524,0,0,0-9.388,4.925,17.854,17.854,0,0,0-12.676,4.225s-8.362-1.488-9.849-.179-8.6-.327-8.6-.327-6.591-15.443-11.471-11.218-24.891,3.258-24.891,3.258c-2.514-3.645-8.927-6.442-12.914-7.9a17.72,17.72,0,0,0-10.682-.6,13.627,13.627,0,0,0-4.3,1.889l-12.587,11.412s-3.318-4.642-2.871-5.654-4.017-2.009-4.017-2.009-5.951-2.068-8.109-2.767-4.389,1.651-4.583,1.86a23.923,23.923,0,0,0,1.369-8.927c-.461-3.913,2.738-7.275,2.738-7.275-6.487-17.854-23.254-3.779-23.254-3.779s-2.217,9.567-.714,13.316-2.083,11.411-1.756,13.48-1.027,5.5-1.175,9.4,1.622,11.352,2.723,14.67,10.653,11.084,10.653,11.084.164,11.709,4.21,18.642.491,29.979.491,29.979-4.791,17.854-10.147,23.418S515,479.9,515,479.9Z" transform="translate(176.236 15.498)" fill="#3f3d56"/>
    <path id="Path_200" data-name="Path 200" d="M592.251,336.29s2.514-6.68,4.583-7.216a47.458,47.458,0,0,0,6.055-2.44l-1.22-2.574s-7.781,1.815-9.105,4.032S592.251,336.29,592.251,336.29Z" transform="translate(213.74 28.474)" opacity="0.1"/>
    <path id="Path_201" data-name="Path 201" d="M620.2,324.929c.342,2.053,18.508,4.612,18.508,4.612l-8.927-9.611h-.223A36.527,36.527,0,0,0,620.2,324.929Z" transform="translate(227.554 26.459)" opacity="0.1"/>
    <path id="Path_202" data-name="Path 202" d="M617.771,369.6c.208-.223-48.235,56.328-82.811,21.246C535.019,390.846,591.333,400.71,617.771,369.6Z" transform="translate(185.973 50.689)" opacity="0.1"/>
    <path id="Path_203" data-name="Path 203" d="M608.549,349.94a89.168,89.168,0,0,1-11.426,17.943A72.07,72.07,0,0,1,579.7,383.446S607.939,353.719,608.549,349.94Z" transform="translate(207.798 41.098)" opacity="0.1"/>
    <path id="Path_204" data-name="Path 204" d="M611.746,328.58s-5.386,19.728-17.526,26.037Z" transform="translate(214.881 30.679)" opacity="0.1"/>
    <path id="Path_205" data-name="Path 205" d="M616.037,330.122c.134-.372,3.5,15.9-16.277,24.073C599.76,354.195,608.122,351.71,616.037,330.122Z" transform="translate(217.583 31.428)" opacity="0.1"/>
    <path id="Path_206" data-name="Path 206" d="M534.051,318.009c.313,0-9.834,5.951-12.631,8.748C521.42,326.787,528.234,317.4,534.051,318.009Z" transform="translate(179.368 25.508)" opacity="0.1"/>
    <path id="Path_207" data-name="Path 207" d="M584.657,328.637a5.1,5.1,0,0,1-2.023,3.214,4.939,4.939,0,0,1-2.321.432c-7.439.178-15.205.208-21.975-2.976a8.3,8.3,0,0,1-3.258-2.351,13.63,13.63,0,0,1-1.741-5.46c-.833-3.69-2.767-7.008-4.106-10.534a34.814,34.814,0,0,1-1.7-18.613,12.6,12.6,0,0,1,2.068-5.386c2.083-2.738,5.713-3.734,8.406-5.877s4.464-5.5,7.618-7.067c2.812-1.488,6.16-1.116,9.224-.461a48.191,48.191,0,0,1,16.931,7.112c1.726,1.146,3.615,2.47,5.668,2.172a7.885,7.885,0,0,0,4.33-3.08,22.421,22.421,0,0,1,1.488,10.7,4.853,4.853,0,0,0,0,1.607,5,5,0,0,0,1.071,1.726c1.756,2.2,2.767,5.624.878,7.692-.818.922-2.053,1.384-2.857,2.306-1.488,1.651-1.086,4.136-1.131,6.338a3.258,3.258,0,0,1-.625,2.142,3.169,3.169,0,0,1-2.976.6,8.452,8.452,0,0,0-3.2-.431,5.43,5.43,0,0,0-2.871,2.038C587.826,318.683,586.308,323.429,584.657,328.637Z" transform="translate(191.831 3.559)" fill="#3f3d56"/>
    <g id="Group_11" data-name="Group 11" transform="translate(745.928 283.009)" opacity="0.1">
      <path id="Path_208" data-name="Path 208" d="M551.983,317.956a8.256,8.256,0,0,0,3.273,2.351c6.769,3.124,14.521,3.095,21.975,2.976a5.328,5.328,0,0,0,2.321-.431,5.1,5.1,0,0,0,2.023-3.229c1.651-5.192,3.169-9.938,6.769-14.179a5.371,5.371,0,0,1,2.871-2.038,8.451,8.451,0,0,1,3.2.432,3.139,3.139,0,0,0,2.976-.61,3.257,3.257,0,0,0,.625-2.142c0-2.187-.312-4.672,1.116-6.323.8-.937,2.038-1.4,2.871-2.306a4.776,4.776,0,0,0,.655-4.865c1.22,2.113,1.7,4.791.1,6.531-.833.907-2.068,1.384-2.871,2.306-1.488,1.651-1.071,4.136-1.116,6.338a3.258,3.258,0,0,1-.625,2.142,3.169,3.169,0,0,1-2.976.6,8.525,8.525,0,0,0-3.2-.431,5.371,5.371,0,0,0-2.871,2.038c-3.6,4.24-5.133,8.927-6.77,14.194a5.1,5.1,0,0,1-2.023,3.214,4.939,4.939,0,0,1-2.321.431c-7.439.179-15.205.208-21.975-2.976a8.257,8.257,0,0,1-3.273-2.351,6.634,6.634,0,0,1-.982-2.009Z" transform="translate(-551.76 -272.325)"/>
      <path id="Path_209" data-name="Path 209" d="M585.223,289.262a3.526,3.526,0,0,1-.7-1.265,4.458,4.458,0,0,1,0-1.592,22.689,22.689,0,0,0-.8-8.927l.134-.149a22.6,22.6,0,0,1,1.413,10.7,7.882,7.882,0,0,0-.045,1.235Z" transform="translate(-536.17 -277.33)"/>
    </g>
    <path id="Path_210" data-name="Path 210" d="M585.733,321.04S555.1,323.9,552.54,319.21" transform="translate(194.549 26.108)" opacity="0.1"/>
    <path id="Path_211" data-name="Path 211" d="M542.189,310.436s-16.931-.625-20.829,5.579" transform="translate(179.339 21.819)" opacity="0.1"/>
  </g>
</svg>
